<?xml version="1.0" standalone="no"?>
 <!DOCTYPE svg PUBLIC "-//W3C//DTD SVG 1.1//EN" 
 "http://www.w3.org/Graphics/SVG/1.1/DTD/svg11.dtd"> 
<svg
  xmlns:svg="http://www.w3.org/2000/svg"
  xmlns="http://www.w3.org/2000/svg"
  xmlns:xlink="http://www.w3.org/1999/xlink"
  version="1.1"
  width="297.0022mm" height="210.0072mm" viewBox="0.0000 0.0000 297.0022 210.0072">
<title>SVG Image created as pomodoro_timer-NPTH-drl_map.svg date 2025/09/15 18:49:41 </title>
  <desc>Image generated by PCBNEW </desc>
<g style="fill:#000000; fill-opacity:1.0000;stroke:#000000; stroke-opacity:1.0000;
stroke-linecap:round; stroke-linejoin:round;"
 transform="translate(0 0) scale(1 1)">
</g>
<g style="fill:none; 
stroke:#000000; stroke-width:0.0712; stroke-opacity:1; 
stroke-linecap:round; stroke-linejoin:round;">
<path d="M140.4354 120.2563 A0.7125 0.7125 0.0 0 0 141.1479 120.9687" />
<path d="M142.0028 5.4167
L141.1479 6.2716
" />
<path d="M156.9635 120.9674 A0.7111 0.7111 0.0 0 0 157.6746 120.2563" />
<path d="M102.1158 22.2677
L131.6728 5.2030
" />
<path d="M189.2167 32.4930 A6.5836 6.5836 0.0 0 0 194.7120 21.4444" />
<path d="M108.5907 32.9867 A47.3447 47.3447 0.0 0 0 140.4355 104.1188" />
<path d="M141.1479 9.6200
L139.4381 9.6200
" />
<path d="M156.2511 5.4167
L142.0028 5.4167
" />
<path d="M157.1772 6.3429
L156.2511 5.4167
" />
<path d="M157.6746 104.1190
L157.6746 120.2563
" />
<path d="M194.7119 21.4444
L166.5811 5.2030
" />
<path d="M157.1772 9.6200
L157.1772 6.3429
" />
<path d="M166.5833 5.1912 A6.5956 6.5956 0.0 0 0 159.0705 9.6200" />
<path d="M141.1479 120.9687
L156.9635 120.9674
" />
<path d="M157.6746 104.1190 A47.3447 47.3447 0.0 0 0 189.2166 32.4930" />
<path d="M141.1479 6.2716
L141.1479 9.6200
" />
<path d="M159.0705 9.6200
L157.1772 9.6200
" />
<path d="M139.4381 9.6200 A6.5787 6.5787 0.0 0 0 131.6739 5.2078" />
<path d="M102.1158 22.2677 A6.5836 6.5836 0.0 0 0 108.5907 32.9867" />
<path d="M140.4355 104.1188
L140.4355 120.2563
" />
</g>
<g style="fill:none; 
stroke:#000000; stroke-width:0.2000; stroke-opacity:1; 
stroke-linecap:round; stroke-linejoin:round;">
<text x="102.4753" y="124.2043"
textLength="14.8667" font-size="2.6667" lengthAdjust="spacingAndGlyphs"
text-anchor="start" opacity="0" stroke-opacity="0">Drill Map:</text>
<g class="stroked-text"><desc>Drill Map:</desc>
<path d="M103.0831 124.1192
L103.0831 122.1192
" />
<path d="M103.0831 122.1192
L103.5593 122.1192
" />
<path d="M103.5593 122.1192
L103.8450 122.2144
" />
<path d="M103.8450 122.2144
L104.0355 122.4049
" />
<path d="M104.0355 122.4049
L104.1307 122.5953
" />
<path d="M104.1307 122.5953
L104.2260 122.9763
" />
<path d="M104.2260 122.9763
L104.2260 123.2620
" />
<path d="M104.2260 123.2620
L104.1307 123.6430
" />
<path d="M104.1307 123.6430
L104.0355 123.8334
" />
<path d="M104.0355 123.8334
L103.8450 124.0239
" />
<path d="M103.8450 124.0239
L103.5593 124.1192
" />
<path d="M103.5593 124.1192
L103.0831 124.1192
" />
<path d="M105.0831 124.1192
L105.0831 122.7858
" />
<path d="M105.0831 123.1668
L105.1783 122.9763
" />
<path d="M105.1783 122.9763
L105.2736 122.8811
" />
<path d="M105.2736 122.8811
L105.4640 122.7858
" />
<path d="M105.4640 122.7858
L105.6545 122.7858
" />
<path d="M106.3212 124.1192
L106.3212 122.7858
" />
<path d="M106.3212 122.1192
L106.2260 122.2144
" />
<path d="M106.2260 122.2144
L106.3212 122.3096
" />
<path d="M106.3212 122.3096
L106.4164 122.2144
" />
<path d="M106.4164 122.2144
L106.3212 122.1192
" />
<path d="M106.3212 122.1192
L106.3212 122.3096
" />
<path d="M107.5593 124.1192
L107.3688 124.0239
" />
<path d="M107.3688 124.0239
L107.2736 123.8334
" />
<path d="M107.2736 123.8334
L107.2736 122.1192
" />
<path d="M108.6069 124.1192
L108.4164 124.0239
" />
<path d="M108.4164 124.0239
L108.3212 123.8334
" />
<path d="M108.3212 123.8334
L108.3212 122.1192
" />
<path d="M110.8926 124.1192
L110.8926 122.1192
" />
<path d="M110.8926 122.1192
L111.5593 123.5477
" />
<path d="M111.5593 123.5477
L112.2260 122.1192
" />
<path d="M112.2260 122.1192
L112.2260 124.1192
" />
<path d="M114.0355 124.1192
L114.0355 123.0715
" />
<path d="M114.0355 123.0715
L113.9402 122.8811
" />
<path d="M113.9402 122.8811
L113.7498 122.7858
" />
<path d="M113.7498 122.7858
L113.3688 122.7858
" />
<path d="M113.3688 122.7858
L113.1783 122.8811
" />
<path d="M114.0355 124.0239
L113.8450 124.1192
" />
<path d="M113.8450 124.1192
L113.3688 124.1192
" />
<path d="M113.3688 124.1192
L113.1783 124.0239
" />
<path d="M113.1783 124.0239
L113.0831 123.8334
" />
<path d="M113.0831 123.8334
L113.0831 123.6430
" />
<path d="M113.0831 123.6430
L113.1783 123.4525
" />
<path d="M113.1783 123.4525
L113.3688 123.3573
" />
<path d="M113.3688 123.3573
L113.8450 123.3573
" />
<path d="M113.8450 123.3573
L114.0355 123.2620
" />
<path d="M114.9879 122.7858
L114.9879 124.7858
" />
<path d="M114.9879 122.8811
L115.1783 122.7858
" />
<path d="M115.1783 122.7858
L115.5593 122.7858
" />
<path d="M115.5593 122.7858
L115.7498 122.8811
" />
<path d="M115.7498 122.8811
L115.8450 122.9763
" />
<path d="M115.8450 122.9763
L115.9402 123.1668
" />
<path d="M115.9402 123.1668
L115.9402 123.7382
" />
<path d="M115.9402 123.7382
L115.8450 123.9287
" />
<path d="M115.8450 123.9287
L115.7498 124.0239
" />
<path d="M115.7498 124.0239
L115.5593 124.1192
" />
<path d="M115.5593 124.1192
L115.1783 124.1192
" />
<path d="M115.1783 124.1192
L114.9879 124.0239
" />
<path d="M116.7974 123.9287
L116.8926 124.0239
" />
<path d="M116.8926 124.0239
L116.7974 124.1192
" />
<path d="M116.7974 124.1192
L116.7021 124.0239
" />
<path d="M116.7021 124.0239
L116.7974 123.9287
" />
<path d="M116.7974 123.9287
L116.7974 124.1192
" />
<path d="M116.7974 122.8811
L116.8926 122.9763
" />
<path d="M116.8926 122.9763
L116.7974 123.0715
" />
<path d="M116.7974 123.0715
L116.7021 122.9763
" />
<path d="M116.7021 122.9763
L116.7974 122.8811
" />
<path d="M116.7974 122.8811
L116.7974 123.0715
" />
</g></g> 
</svg>
