<?xml version="1.0" standalone="no"?>
 <!DOCTYPE svg PUBLIC "-//W3C//DTD SVG 1.1//EN" 
 "http://www.w3.org/Graphics/SVG/1.1/DTD/svg11.dtd"> 
<svg
  xmlns:svg="http://www.w3.org/2000/svg"
  xmlns="http://www.w3.org/2000/svg"
  xmlns:xlink="http://www.w3.org/1999/xlink"
  version="1.1"
  width="297.0022mm" height="210.0072mm" viewBox="0.0000 0.0000 297.0022 210.0072">
<title>SVG Image created as pomodoro_timer-F_Cu.svg date 2025/04/02 09:21:02 </title>
  <desc>Image generated by PCBNEW </desc>
<g style="fill:#000000; fill-opacity:1.0000;stroke:#000000; stroke-opacity:1.0000;
stroke-linecap:round; stroke-linejoin:round;"
 transform="translate(0 0) scale(1 1)">
<path style="fill:#000000; fill-opacity:1.0000; stroke:none;fill-rule:evenodd;"
d="M 107.6267,143.0548
107.1767,142.2753
108.4758,141.5253
108.9258,142.3048
Z" /> 
<path style="fill:#000000; fill-opacity:1.0000; stroke:none;fill-rule:evenodd;"
d="M 109.2767,145.9127
108.8267,145.1332
110.1258,144.3832
110.5758,145.1627
Z" /> 
<path style="fill:#000000; fill-opacity:1.0000; stroke:none;fill-rule:evenodd;"
d="M 113.5202,143.4627
113.0702,142.6832
114.3693,141.9332
114.8193,142.7127
Z" /> 
<path style="fill:#000000; fill-opacity:1.0000; stroke:none;fill-rule:evenodd;"
d="M 111.8702,140.6048
111.4202,139.8253
112.7193,139.0753
113.1693,139.8548
Z" /> 
</g>
<g style="fill:#000000; fill-opacity:1.0000; stroke:none;">
<circle cx="100.5900" cy="121.3700" r="1.0500" /> 
</g>
<g style="fill:#000000; fill-opacity:1.0000; stroke:none;">
<circle cx="98.0500" cy="121.3700" r="1.0500" /> 
</g>
<g style="fill:#000000; fill-opacity:1.0000; stroke:none;">
<circle cx="95.5100" cy="121.3700" r="1.0500" /> 
</g>
<g style="fill:#000000; fill-opacity:1.0000; stroke:none;">
<circle cx="92.9700" cy="121.3700" r="1.0500" /> 
<path style="fill:#000000; fill-opacity:1.0000; stroke:none;fill-rule:evenodd;"
d="M 116.2404,92.4485
115.5476,92.0485
116.1476,91.0092
116.8404,91.4092
Z" /> 
<path style="fill:#000000; fill-opacity:1.0000; stroke:none;fill-rule:evenodd;"
d="M 118.0404,89.3308
117.3476,88.9308
117.9476,87.8915
118.6404,88.2915
Z" /> 
<path style="fill:#000000; fill-opacity:1.0000; stroke:none;fill-rule:evenodd;"
d="M 80.5315,139.9048
80.9815,139.1254
82.2805,139.8754
81.8305,140.6548
Z" /> 
<path style="fill:#000000; fill-opacity:1.0000; stroke:none;fill-rule:evenodd;"
d="M 78.8815,142.7627
79.3315,141.9833
80.6305,142.7333
80.1805,143.5127
Z" /> 
<path style="fill:#000000; fill-opacity:1.0000; stroke:none;fill-rule:evenodd;"
d="M 83.1250,145.2127
83.5750,144.4333
84.8740,145.1833
84.4240,145.9627
Z" /> 
<path style="fill:#000000; fill-opacity:1.0000; stroke:none;fill-rule:evenodd;"
d="M 84.7750,142.3548
85.2250,141.5754
86.5240,142.3254
86.0740,143.1048
Z" /> 
<path style="fill:#000000; fill-opacity:1.0000; stroke:none;fill-rule:evenodd;"
d="M 86.2300,119.0500
86.2300,117.4500
87.4300,117.4500
87.4300,119.0500
Z" /> 
<path style="fill:#000000; fill-opacity:1.0000; stroke:none;fill-rule:evenodd;"
d="M 89.2300,119.0500
89.2300,117.4500
90.4300,117.4500
90.4300,119.0500
Z" /> 
<path style="fill:#000000; fill-opacity:1.0000; stroke:none;fill-rule:evenodd;"
d="M 98.3500,88.7000
99.8500,88.7000
99.8500,90.7000
98.3500,90.7000
Z" /> 
<path style="fill:#000000; fill-opacity:1.0000; stroke:none;fill-rule:evenodd;"
d="M 96.0500,88.7000
97.5500,88.7000
97.5500,90.7000
96.0500,90.7000
Z" /> 
<path style="fill:#000000; fill-opacity:1.0000; stroke:none;fill-rule:evenodd;"
d="M 94.9000,95.0000
98.7000,95.0000
98.7000,97.0000
94.9000,97.0000
Z" /> 
<path style="fill:#000000; fill-opacity:1.0000; stroke:none;fill-rule:evenodd;"
d="M 93.7500,88.7000
95.2500,88.7000
95.2500,90.7000
93.7500,90.7000
Z" /> 
<path style="fill:#000000; fill-opacity:1.0000; stroke:none;fill-rule:evenodd;"
d="M 105.3200,97.2600
107.0200,97.2600
107.0200,98.6600
105.3200,98.6600
Z" /> 
<path style="fill:#000000; fill-opacity:1.0000; stroke:none;fill-rule:evenodd;"
d="M 105.3200,100.6600
107.0200,100.6600
107.0200,102.0600
105.3200,102.0600
Z" /> 
<path style="fill:#000000; fill-opacity:1.0000; stroke:none;fill-rule:evenodd;"
d="M 120.4488,108.0193
119.6693,108.4693
118.9193,107.1702
119.6988,106.7202
Z" /> 
<path style="fill:#000000; fill-opacity:1.0000; stroke:none;fill-rule:evenodd;"
d="M 123.3067,106.3693
122.5272,106.8193
121.7772,105.5202
122.5567,105.0702
Z" /> 
<path style="fill:#000000; fill-opacity:1.0000; stroke:none;fill-rule:evenodd;"
d="M 120.8567,102.1258
120.0772,102.5758
119.3272,101.2767
120.1067,100.8267
Z" /> 
<path style="fill:#000000; fill-opacity:1.0000; stroke:none;fill-rule:evenodd;"
d="M 117.9988,103.7758
117.2193,104.2258
116.4693,102.9267
117.2488,102.4767
Z" /> 
<path style="fill:#000000; fill-opacity:1.0000; stroke:none;fill-rule:evenodd;"
d="M 72.0832,128.2007
72.8627,127.7507
73.6127,129.0498
72.8332,129.4998
Z" /> 
<path style="fill:#000000; fill-opacity:1.0000; stroke:none;fill-rule:evenodd;"
d="M 69.2253,129.8507
70.0048,129.4007
70.7548,130.6998
69.9753,131.1498
Z" /> 
<path style="fill:#000000; fill-opacity:1.0000; stroke:none;fill-rule:evenodd;"
d="M 71.6753,134.0942
72.4548,133.6442
73.2048,134.9433
72.4253,135.3933
Z" /> 
<path style="fill:#000000; fill-opacity:1.0000; stroke:none;fill-rule:evenodd;"
d="M 74.5332,132.4442
75.3127,131.9942
76.0627,133.2933
75.2832,133.7433
Z" /> 
<path style="fill:#000000; fill-opacity:1.0000; stroke:none;fill-rule:evenodd;"
d="M 93.8619,86.5530
92.6619,86.5530
92.6619,77.5530
93.8619,77.5530
Z" /> 
<path style="fill:#000000; fill-opacity:1.0000; stroke:none;fill-rule:evenodd;"
d="M 96.3619,86.5530
95.1619,86.5530
95.1619,78.5530
96.3619,78.5530
Z" /> 
<path style="fill:#000000; fill-opacity:1.0000; stroke:none;fill-rule:evenodd;"
d="M 98.3619,86.5530
97.1619,86.5530
97.1619,78.5530
98.3619,78.5530
Z" /> 
<path style="fill:#000000; fill-opacity:1.0000; stroke:none;fill-rule:evenodd;"
d="M 100.8619,86.5530
99.6619,86.5530
99.6619,77.5530
100.8619,77.5530
Z" /> 
</g>
<g style="fill:#000000; fill-opacity:1.0000; stroke:none;">
<circle cx="121.5530" cy="94.9875" r="0.6000" /> 
</g>
<g style="fill:#000000; fill-opacity:1.0000; stroke:none;">
<circle cx="123.3030" cy="91.9565" r="0.6000" /> 
<path style="fill:#000000; fill-opacity:1.0000; stroke:none;fill-rule:evenodd;"
d="M 75.5372,103.2387
76.3167,103.6887
75.5667,104.9878
74.7872,104.5378
Z" /> 
<path style="fill:#000000; fill-opacity:1.0000; stroke:none;fill-rule:evenodd;"
d="M 72.6793,101.5887
73.4588,102.0387
72.7088,103.3378
71.9293,102.8878
Z" /> 
<path style="fill:#000000; fill-opacity:1.0000; stroke:none;fill-rule:evenodd;"
d="M 70.2293,105.8322
71.0088,106.2822
70.2588,107.5813
69.4793,107.1313
Z" /> 
<path style="fill:#000000; fill-opacity:1.0000; stroke:none;fill-rule:evenodd;"
d="M 73.0872,107.4822
73.8667,107.9322
73.1167,109.2313
72.3372,108.7813
Z" /> 
<path style="fill:#000000; fill-opacity:1.0000; stroke:none;fill-rule:evenodd;"
d="M 87.7116,126.6240
89.2116,126.6240
89.2116,129.1240
87.7116,129.1240
Z" /> 
<path style="fill:#000000; fill-opacity:1.0000; stroke:none;fill-rule:evenodd;"
d="M 87.7116,133.6240
89.2116,133.6240
89.2116,136.1240
87.7116,136.1240
Z" /> 
<path style="fill:#000000; fill-opacity:1.0000; stroke:none;fill-rule:evenodd;"
d="M 83.7116,126.6240
85.2116,126.6240
85.2116,129.1240
83.7116,129.1240
Z" /> 
<path style="fill:#000000; fill-opacity:1.0000; stroke:none;fill-rule:evenodd;"
d="M 83.7116,133.6240
85.2116,133.6240
85.2116,136.1240
83.7116,136.1240
Z" /> 
<path style="fill:#000000; fill-opacity:1.0000; stroke:none;fill-rule:evenodd;"
d="M 90.8400,93.6400
92.4400,93.6400
92.4400,94.8400
90.8400,94.8400
Z" /> 
<path style="fill:#000000; fill-opacity:1.0000; stroke:none;fill-rule:evenodd;"
d="M 90.8400,96.6400
92.4400,96.6400
92.4400,97.8400
90.8400,97.8400
Z" /> 
<path style="fill:#000000; fill-opacity:1.0000; stroke:none;fill-rule:evenodd;"
d="M 70.9240,115.7620
71.8240,115.7620
71.8240,117.2620
70.9240,117.2620
Z" /> 
<path style="fill:#000000; fill-opacity:1.0000; stroke:none;fill-rule:evenodd;"
d="M 67.6240,115.7620
68.5240,115.7620
68.5240,117.2620
67.6240,117.2620
Z" /> 
<path style="fill:#000000; fill-opacity:1.0000; stroke:none;fill-rule:evenodd;"
d="M 67.6240,120.6620
68.5240,120.6620
68.5240,122.1620
67.6240,122.1620
Z" /> 
<path style="fill:#000000; fill-opacity:1.0000; stroke:none;fill-rule:evenodd;"
d="M 70.9240,120.6620
71.8240,120.6620
71.8240,122.1620
70.9240,122.1620
Z" /> 
<path style="fill:#000000; fill-opacity:1.0000; stroke:none;fill-rule:evenodd;"
d="M 114.4393,98.1432
113.9893,98.9227
112.6902,98.1727
113.1402,97.3932
Z" /> 
<path style="fill:#000000; fill-opacity:1.0000; stroke:none;fill-rule:evenodd;"
d="M 116.0893,95.2853
115.6393,96.0648
114.3402,95.3148
114.7902,94.5353
Z" /> 
<path style="fill:#000000; fill-opacity:1.0000; stroke:none;fill-rule:evenodd;"
d="M 111.8458,92.8353
111.3958,93.6148
110.0967,92.8648
110.5467,92.0853
Z" /> 
<path style="fill:#000000; fill-opacity:1.0000; stroke:none;fill-rule:evenodd;"
d="M 110.1958,95.6932
109.7458,96.4727
108.4467,95.7227
108.8967,94.9432
Z" /> 
<path style="fill:#000000; fill-opacity:1.0000; stroke:none;fill-rule:evenodd;"
d="M 102.9800,116.5600
104.5800,116.5600
104.5800,117.7600
102.9800,117.7600
Z" /> 
<path style="fill:#000000; fill-opacity:1.0000; stroke:none;fill-rule:evenodd;"
d="M 102.9800,119.5600
104.5800,119.5600
104.5800,120.7600
102.9800,120.7600
Z" /> 
<path style="fill:#000000; fill-opacity:1.0000; stroke:none;fill-rule:evenodd;"
d="M 90.8432,88.8066
92.4432,88.8066
92.4432,90.0066
90.8432,90.0066
Z" /> 
<path style="fill:#000000; fill-opacity:1.0000; stroke:none;fill-rule:evenodd;"
d="M 90.8432,91.8066
92.4432,91.8066
92.4432,93.0066
90.8432,93.0066
Z" /> 
<path style="fill:#000000; fill-opacity:1.0000; stroke:none;fill-rule:evenodd;"
d="M 105.4988,92.3716
103.8988,92.3716
103.8988,91.1716
105.4988,91.1716
Z" /> 
<path style="fill:#000000; fill-opacity:1.0000; stroke:none;fill-rule:evenodd;"
d="M 105.4988,89.3716
103.8988,89.3716
103.8988,88.1716
105.4988,88.1716
Z" /> 
<path style="fill:#000000; fill-opacity:1.0000; stroke:none;fill-rule:evenodd;"
d="M 86.1753,94.6892
86.6253,95.4687
85.3262,96.2187
84.8762,95.4392
Z" /> 
<path style="fill:#000000; fill-opacity:1.0000; stroke:none;fill-rule:evenodd;"
d="M 84.5253,91.8313
84.9753,92.6108
83.6762,93.3608
83.2262,92.5813
Z" /> 
<path style="fill:#000000; fill-opacity:1.0000; stroke:none;fill-rule:evenodd;"
d="M 80.2818,94.2813
80.7318,95.0608
79.4327,95.8108
78.9827,95.0313
Z" /> 
<path style="fill:#000000; fill-opacity:1.0000; stroke:none;fill-rule:evenodd;"
d="M 81.9318,97.1392
82.3818,97.9187
81.0827,98.6687
80.6327,97.8892
Z" /> 
<path style="fill:#000000; fill-opacity:1.0000; stroke:none;fill-rule:evenodd;"
d="M 107.9620,126.6240
109.4620,126.6240
109.4620,129.1240
107.9620,129.1240
Z" /> 
<path style="fill:#000000; fill-opacity:1.0000; stroke:none;fill-rule:evenodd;"
d="M 107.9620,133.6240
109.4620,133.6240
109.4620,136.1240
107.9620,136.1240
Z" /> 
<path style="fill:#000000; fill-opacity:1.0000; stroke:none;fill-rule:evenodd;"
d="M 103.9620,126.6240
105.4620,126.6240
105.4620,129.1240
103.9620,129.1240
Z" /> 
<path style="fill:#000000; fill-opacity:1.0000; stroke:none;fill-rule:evenodd;"
d="M 103.9620,133.6240
105.4620,133.6240
105.4620,136.1240
103.9620,136.1240
Z" /> 
<path style="fill:#000000; fill-opacity:1.0000; stroke:none;fill-rule:evenodd;"
d="M 101.8300,92.6400
101.0300,92.6400
101.0300,91.4400
101.8300,91.4400
Z" /> 
<path style="fill:#000000; fill-opacity:1.0000; stroke:none;fill-rule:evenodd;"
d="M 101.8300,89.0400
101.0300,89.0400
101.0300,87.8400
101.8300,87.8400
Z" /> 
<path style="fill:#000000; fill-opacity:1.0000; stroke:none;fill-rule:evenodd;"
d="M 92.9619,111.9850
92.9619,111.1850
94.9619,111.1850
94.9619,111.9850
Z" /> 
<path style="fill:#000000; fill-opacity:1.0000; stroke:none;fill-rule:evenodd;"
d="M 92.9619,113.2550
92.9619,112.4550
94.9619,112.4550
94.9619,113.2550
Z" /> 
<path style="fill:#000000; fill-opacity:1.0000; stroke:none;fill-rule:evenodd;"
d="M 92.9619,114.5250
92.9619,113.7250
94.9619,113.7250
94.9619,114.5250
Z" /> 
<path style="fill:#000000; fill-opacity:1.0000; stroke:none;fill-rule:evenodd;"
d="M 92.9619,115.7950
92.9619,114.9950
94.9619,114.9950
94.9619,115.7950
Z" /> 
<path style="fill:#000000; fill-opacity:1.0000; stroke:none;fill-rule:evenodd;"
d="M 98.5619,115.7950
98.5619,114.9950
100.5619,114.9950
100.5619,115.7950
Z" /> 
<path style="fill:#000000; fill-opacity:1.0000; stroke:none;fill-rule:evenodd;"
d="M 98.5619,114.5250
98.5619,113.7250
100.5619,113.7250
100.5619,114.5250
Z" /> 
<path style="fill:#000000; fill-opacity:1.0000; stroke:none;fill-rule:evenodd;"
d="M 98.5619,113.2550
98.5619,112.4550
100.5619,112.4550
100.5619,113.2550
Z" /> 
<path style="fill:#000000; fill-opacity:1.0000; stroke:none;fill-rule:evenodd;"
d="M 98.5619,111.9850
98.5619,111.1850
100.5619,111.1850
100.5619,111.9850
Z" /> 
</g>
<g style="fill:#000000; fill-opacity:1.0000; stroke:none;">
<circle cx="110.9980" cy="116.5860" r="1.0500" /> 
</g>
<g style="fill:#000000; fill-opacity:1.0000; stroke:none;">
<circle cx="110.9980" cy="119.1260" r="1.0500" /> 
</g>
<g style="fill:#000000; fill-opacity:1.0000; stroke:none;">
<circle cx="110.9980" cy="121.6660" r="1.0500" /> 
<path style="fill:#000000; fill-opacity:1.0000; stroke:none;fill-rule:evenodd;"
d="M 105.9592,93.2198
106.6592,93.2198
106.6592,94.2198
105.9592,94.2198
Z" /> 
<path style="fill:#000000; fill-opacity:1.0000; stroke:none;fill-rule:evenodd;"
d="M 104.0592,93.2198
104.7592,93.2198
104.7592,94.2198
104.0592,94.2198
Z" /> 
<path style="fill:#000000; fill-opacity:1.0000; stroke:none;fill-rule:evenodd;"
d="M 105.0092,95.6198
105.7092,95.6198
105.7092,96.6198
105.0092,96.6198
Z" /> 
<path style="fill:#000000; fill-opacity:1.0000; stroke:none;fill-rule:evenodd;"
d="M 102.3700,97.6700
103.9700,97.6700
103.9700,98.8700
102.3700,98.8700
Z" /> 
<path style="fill:#000000; fill-opacity:1.0000; stroke:none;fill-rule:evenodd;"
d="M 102.3700,100.6700
103.9700,100.6700
103.9700,101.8700
102.3700,101.8700
Z" /> 
<path style="fill:#000000; fill-opacity:1.0000; stroke:none;fill-rule:evenodd;"
d="M 123.5140,122.3260
122.6140,122.3260
122.6140,120.8260
123.5140,120.8260
Z" /> 
<path style="fill:#000000; fill-opacity:1.0000; stroke:none;fill-rule:evenodd;"
d="M 126.8140,122.3260
125.9140,122.3260
125.9140,120.8260
126.8140,120.8260
Z" /> 
<path style="fill:#000000; fill-opacity:1.0000; stroke:none;fill-rule:evenodd;"
d="M 126.8140,117.4260
125.9140,117.4260
125.9140,115.9260
126.8140,115.9260
Z" /> 
<path style="fill:#000000; fill-opacity:1.0000; stroke:none;fill-rule:evenodd;"
d="M 123.5140,117.4260
122.6140,117.4260
122.6140,115.9260
123.5140,115.9260
Z" /> 
<path style="fill:#000000; fill-opacity:1.0000; stroke:none;fill-rule:evenodd;"
d="M 78.0004,92.5565
77.3076,92.9565
76.7076,91.9172
77.4004,91.5172
Z" /> 
<path style="fill:#000000; fill-opacity:1.0000; stroke:none;fill-rule:evenodd;"
d="M 76.2004,89.4388
75.5076,89.8388
74.9076,88.7995
75.6004,88.3995
Z" /> 
<path style="fill:#000000; fill-opacity:1.0000; stroke:none;fill-rule:evenodd;"
d="M 93.5619,144.8500
93.5619,143.9500
95.0619,143.9500
95.0619,144.8500
Z" /> 
<path style="fill:#000000; fill-opacity:1.0000; stroke:none;fill-rule:evenodd;"
d="M 93.5619,148.1500
93.5619,147.2500
95.0619,147.2500
95.0619,148.1500
Z" /> 
<path style="fill:#000000; fill-opacity:1.0000; stroke:none;fill-rule:evenodd;"
d="M 98.4619,148.1500
98.4619,147.2500
99.9619,147.2500
99.9619,148.1500
Z" /> 
<path style="fill:#000000; fill-opacity:1.0000; stroke:none;fill-rule:evenodd;"
d="M 98.4619,144.8500
98.4619,143.9500
99.9619,143.9500
99.9619,144.8500
Z" /> 
</g>
<g style="fill:#000000; fill-opacity:1.0000; stroke:none;">
<circle cx="72.2490" cy="95.7495" r="0.6000" /> 
</g>
<g style="fill:#000000; fill-opacity:1.0000; stroke:none;">
<circle cx="70.4990" cy="92.7185" r="0.6000" /> 
<path style="fill:#000000; fill-opacity:1.0000; stroke:none;fill-rule:evenodd;"
d="M 89.1100,93.1941
87.4100,93.1941
87.4100,91.7941
89.1100,91.7941
Z" /> 
<path style="fill:#000000; fill-opacity:1.0000; stroke:none;fill-rule:evenodd;"
d="M 89.1100,89.7941
87.4100,89.7941
87.4100,88.3941
89.1100,88.3941
Z" /> 
<path style="fill:#000000; fill-opacity:1.0000; stroke:none;fill-rule:evenodd;"
d="M 102.5900,110.3500
100.9900,110.3500
100.9900,109.1500
102.5900,109.1500
Z" /> 
<path style="fill:#000000; fill-opacity:1.0000; stroke:none;fill-rule:evenodd;"
d="M 102.5900,107.3500
100.9900,107.3500
100.9900,106.1500
102.5900,106.1500
Z" /> 
<path style="fill:#000000; fill-opacity:1.0000; stroke:none;fill-rule:evenodd;"
d="M 98.0119,126.6240
99.5119,126.6240
99.5119,129.1240
98.0119,129.1240
Z" /> 
<path style="fill:#000000; fill-opacity:1.0000; stroke:none;fill-rule:evenodd;"
d="M 98.0119,133.6240
99.5119,133.6240
99.5119,136.1240
98.0119,136.1240
Z" /> 
<path style="fill:#000000; fill-opacity:1.0000; stroke:none;fill-rule:evenodd;"
d="M 94.0119,126.6240
95.5119,126.6240
95.5119,129.1240
94.0119,129.1240
Z" /> 
<path style="fill:#000000; fill-opacity:1.0000; stroke:none;fill-rule:evenodd;"
d="M 94.0119,133.6240
95.5119,133.6240
95.5119,136.1240
94.0119,136.1240
Z" /> 
<path style="fill:#000000; fill-opacity:1.0000; stroke:none;fill-rule:evenodd;"
d="M 118.5188,134.2513
117.7393,133.8013
118.4893,132.5022
119.2688,132.9522
Z" /> 
<path style="fill:#000000; fill-opacity:1.0000; stroke:none;fill-rule:evenodd;"
d="M 121.3767,135.9013
120.5972,135.4513
121.3472,134.1522
122.1267,134.6022
Z" /> 
<path style="fill:#000000; fill-opacity:1.0000; stroke:none;fill-rule:evenodd;"
d="M 123.8267,131.6578
123.0472,131.2078
123.7972,129.9087
124.5767,130.3587
Z" /> 
<path style="fill:#000000; fill-opacity:1.0000; stroke:none;fill-rule:evenodd;"
d="M 120.9688,130.0078
120.1893,129.5578
120.9393,128.2587
121.7188,128.7087
Z" /> 
<path style="fill:#000000; fill-opacity:1.0000; stroke:none;fill-rule:evenodd;"
d="M 99.9619,102.5300
99.9619,103.4300
98.4619,103.4300
98.4619,102.5300
Z" /> 
<path style="fill:#000000; fill-opacity:1.0000; stroke:none;fill-rule:evenodd;"
d="M 99.9619,99.2300
99.9619,100.1300
98.4619,100.1300
98.4619,99.2300
Z" /> 
<path style="fill:#000000; fill-opacity:1.0000; stroke:none;fill-rule:evenodd;"
d="M 95.0619,99.2300
95.0619,100.1300
93.5619,100.1300
93.5619,99.2300
Z" /> 
<path style="fill:#000000; fill-opacity:1.0000; stroke:none;fill-rule:evenodd;"
d="M 95.0619,102.5300
95.0619,103.4300
93.5619,103.4300
93.5619,102.5300
Z" /> 
</g>
<g style="fill:#000000; fill-opacity:1.0000; stroke:none;">
<circle cx="78.2400" cy="88.2400" r="0.7000" /> 
</g>
<g style="fill:#000000; fill-opacity:1.0000; stroke:none;">
<circle cx="112.7900" cy="88.1700" r="0.7000" /> 
</g>
<g style="fill:none; 
stroke:#000000; stroke-width:0.4000; stroke-opacity:1; 
stroke-linecap:round; stroke-linejoin:round;">
<path d="M93.0000 91.0498
L91.6432 92.4066
" />
<path d="M93.2619 82.0530
L93.0000 82.3149
" />
<path d="M93.0000 82.3149
L93.0000 91.0498
" />
<path d="M94.0600 90.1400
L94.5000 89.7000
" />
<path d="M93.1300 93.5500
L94.0600 92.6200
" />
<path d="M94.0600 92.6200
L94.0600 90.1400
" />
<path d="M91.6400 97.2400
L93.1300 95.7500
" />
<path d="M93.1300 95.7500
L93.1300 93.5500
" />
<path d="M118.2943 91.7288
L121.5530 94.9875
" />
<path d="M75.5540 89.1192
L76.8952 89.1192
" />
<path d="M74.0983 89.1192
L75.5540 89.1192
" />
<path d="M116.1940 91.7288
L118.2943 91.7288
" />
<path d="M76.8952 89.1192
L78.2022 87.8122
" />
<path d="M116.1940 91.5740
L112.7900 88.1700
" />
<path d="M78.2022 87.8122
L78.2320 87.7824
" />
<path d="M116.1940 91.7288
L116.1940 91.5740
" />
<path d="M70.4990 92.7185
L74.0983 89.1192
" />
<path d="M110.9712 92.6912
L107.0516 88.7716
" />
<path d="M92.9900 121.3900
L92.9700 121.3700
" />
<path d="M110.9712 92.8501
L114.8901 92.8501
" />
<path d="M99.1000 92.2000
L99.1000 89.7000
" />
<path d="M113.4400 134.1300
L113.4400 121.5680
" />
<path d="M98.3700 92.9300
L99.1000 92.2000
" />
<path d="M84.4616 112.8584
L84.4616 127.8740
" />
<path d="M121.5922 100.2010
L121.5922 103.0022
" />
<path d="M113.4400 121.5680
L110.9980 119.1260
" />
<path d="M88.2600 92.4941
L88.8100 93.0441
" />
<path d="M94.3119 100.3119
L96.4200 102.4200
" />
<path d="M88.8100 93.0441
L88.8100 96.6120
" />
<path d="M127.4600 117.7720
L126.3640 116.6760
" />
<path d="M94.3100 99.6800
L94.2200 99.5900
" />
<path d="M96.4200 104.5300
L94.4400 106.5100
" />
<path d="M90.8100 106.5100
L84.4616 112.8584
" />
<path d="M124.8700 108.7800
L126.1836 110.0936
" />
<path d="M122.7300 131.8652
L122.7300 135.5536
" />
<path d="M91.8780 99.6800
L94.3100 99.6800
" />
<path d="M94.7619 127.8740
L92.9900 126.1021
" />
<path d="M123.8119 130.7832
L122.7300 131.8652
" />
<path d="M120.0919 98.0519
L120.0919 101.7012
" />
<path d="M104.7120 134.8740
L104.7120 127.8740
" />
<path d="M66.4402 114.7298
L66.2400 116.3937
" />
<path d="M107.0516 88.7716
L104.6988 88.7716
" />
<path d="M103.7704 89.7000
L104.6988 88.7716
" />
<path d="M101.9460 137.6400
L93.9700 137.6400
" />
<path d="M93.9700 137.6400
L94.7740 136.8360
" />
<path d="M94.5000 99.4900
L94.3100 99.6800
" />
<path d="M95.8000 92.9300
L98.3700 92.9300
" />
<path d="M84.4616 134.8740
L84.4616 127.8740
" />
<path d="M121.8142 136.8958
L122.7300 135.5536
" />
<path d="M120.0919 101.7012
L121.4216 100.3716
" />
<path d="M100.2619 85.4283
L100.2619 82.0530
" />
<path d="M123.3030 98.4902
L123.3030 91.9565
" />
<path d="M72.4401 134.5188
L72.4401 137.6001
" />
<path d="M114.8901 92.8501
L120.0919 98.0519
" />
<path d="M70.6961 102.9839
L78.6339 95.0461
" />
<path d="M123.8119 130.7832
L123.8119 126.1301
" />
<path d="M70.2441 103.7187
L70.6961 102.9839
" />
<path d="M127.3111 122.6309
L127.4600 121.0686
" />
<path d="M94.7619 134.8740
L94.7619 127.8740
" />
<path d="M102.9618 88.1282
L100.2619 85.4283
" />
<path d="M124.6119 106.0219
L124.8700 106.6178
" />
<path d="M123.8119 126.1301
L127.3111 122.6309
" />
<path d="M68.0740 129.8302
L68.2927 130.3714
" />
<path d="M92.9900 126.1021
L92.9900 121.3900
" />
<path d="M86.3080 145.1980
L83.9995 145.1980
" />
<path d="M121.7066 100.0866
L123.3030 98.4902
" />
<path d="M126.1836 110.0936
L126.3640 110.7588
" />
<path d="M70.2441 106.7068
L70.2441 103.7187
" />
<path d="M121.5922 103.0022
L124.6119 106.0219
" />
<path d="M88.8100 96.6120
L91.8780 99.6800
" />
<path d="M121.4216 100.3716
L121.7066 100.0866
" />
<path d="M94.2200 94.5100
L95.8000 92.9300
" />
<path d="M84.4616 134.8740
L87.2276 137.6400
" />
<path d="M99.1000 89.7000
L103.7704 89.7000
" />
<path d="M68.2927 130.3714
L72.4401 134.5188
" />
<path d="M70.2441 106.7068
L70.2441 110.9259
" />
<path d="M124.8700 106.6178
L124.8700 108.7800
" />
<path d="M123.3030 91.9565
L121.3393 91.9565
" />
<path d="M83.5615 144.7600
L83.9995 145.1980
" />
<path d="M103.4570 111.5850
L110.9980 119.1260
" />
<path d="M70.2441 110.9259
L66.4402 114.7298
" />
<path d="M127.4600 121.0686
L127.4600 117.7720
" />
<path d="M126.3640 110.7588
L126.3640 116.6760
" />
<path d="M94.3119 99.6800
L94.3119 100.3119
" />
<path d="M121.7066 100.0866
L121.5922 100.2010
" />
<path d="M110.9712 92.8501
L110.9712 92.6912
" />
<path d="M94.4400 106.5100
L90.8100 106.5100
" />
<path d="M80.0065 144.7600
L83.5615 144.7600
" />
<path d="M104.6988 88.7716
L103.6052 88.7716
" />
<path d="M113.9448 142.6979
L109.7027 146.9400
" />
<path d="M78.6339 95.0461
L79.8572 95.0461
" />
<path d="M101.9460 137.6400
L109.9300 137.6400
" />
<path d="M100.2619 85.4550
L100.2619 82.0530
" />
<path d="M121.3393 91.9565
L117.9940 88.6112
" />
<path d="M104.7120 134.8740
L101.9460 137.6400
" />
<path d="M87.2276 137.6400
L93.9700 137.6400
" />
<path d="M113.9448 142.6979
L116.0121 142.6979
" />
<path d="M78.6491 143.8091
L80.0065 144.7600
" />
<path d="M94.7740 136.8360
L94.7740 134.8740
" />
<path d="M116.0121 142.6979
L121.8142 136.8958
" />
<path d="M99.5619 111.5850
L103.4570 111.5850
" />
<path d="M109.7027 146.9400
L99.9840 146.9400
" />
<path d="M94.2200 99.5900
L94.2200 94.5100
" />
<path d="M103.6052 88.7716
L102.9618 88.1282
" />
<path d="M96.4200 102.4200
L96.4200 104.5300
" />
<path d="M104.4092 93.7198
L99.1598 93.7198
" />
<path d="M109.9300 137.6400
L113.4400 134.1300
" />
<path d="M99.1598 93.7198
L98.3700 92.9300
" />
<path d="M66.2400 116.3937
L66.2400 119.5780
" />
<path d="M72.4401 137.6001
L78.6491 143.8091
" />
<path d="M66.2400 119.5780
L68.0740 121.4120
" />
<path d="M99.0300 89.7000
L99.1000 89.7000
" />
<path d="M68.0740 121.4120
L68.0740 129.8302
" />
<path d="M99.9840 146.9400
L97.9040 149.0200
" />
<path d="M97.9040 149.0200
L90.1300 149.0200
" />
<path d="M90.1300 149.0200
L86.3080 145.1980
" />
<path d="M91.3307 89.0941
L91.6432 89.4066
" />
<path d="M88.2600 89.0941
L91.3307 89.0941
" />
<path d="M103.1700 98.3600
L106.1700 101.3600
" />
<path d="M103.1700 98.2700
L103.1700 98.3600
" />
<path d="M108.7120 134.8740
L108.7120 127.8740
" />
<path d="M110.9980 125.5880
L108.7120 127.8740
" />
<path d="M110.9980 121.6660
L110.9980 125.5880
" />
<path d="M99.5619 114.1250
L103.4570 114.1250
" />
<path d="M103.4570 114.1250
L110.9980 121.6660
" />
<path d="M103.7800 117.1600
L102.0150 115.3950
" />
<path d="M102.0150 115.3950
L99.5619 115.3950
" />
<path d="M108.0512 142.2901
L96.4339 142.2901
" />
<path d="M81.4060 139.8901
L81.4060 135.6560
" />
<path d="M75.5519 104.1132
L75.5519 112.3341
" />
<path d="M93.9600 111.5831
L93.9619 111.5850
" />
<path d="M119.6841 107.5948
L115.5448 107.5948
" />
<path d="M75.5519 104.1132
L77.6868 104.1132
" />
<path d="M107.8600 94.6000
L107.8600 103.1100
" />
<path d="M72.8479 128.6252
L72.8479 117.9859
" />
<path d="M116.9645 133.3768
L118.5041 133.3768
" />
<path d="M86.8300 118.2500
L86.8300 114.3700
" />
<path d="M96.4339 142.2901
L94.3240 144.4000
" />
<path d="M89.6150 111.5850
L93.9619 111.5850
" />
<path d="M115.0100 99.6032
L113.5648 98.1579
" />
<path d="M108.0512 142.2901
L116.9645 133.3768
" />
<path d="M96.2500 108.5200
L99.2119 105.5581
" />
<path d="M89.8141 139.8901
L94.3240 144.4000
" />
<path d="M75.5519 112.3341
L71.3740 116.5120
" />
<path d="M81.4060 139.8901
L89.8141 139.8901
" />
<path d="M103.1700 101.2700
L101.4600 102.9800
" />
<path d="M118.5041 126.1359
L123.0640 121.5760
" />
<path d="M81.4060 135.6560
L74.3752 128.6252
" />
<path d="M101.4600 102.9800
L99.2100 102.9800
" />
<path d="M119.6841 107.5948
L119.6841 118.1961
" />
<path d="M107.5500 103.4200
L105.3200 103.4200
" />
<path d="M74.3752 128.6252
L72.8479 128.6252
" />
<path d="M113.5648 97.7433
L109.1407 93.3193
" />
</g>
<g style="fill:none; 
stroke:#000000; stroke-width:0.6000; stroke-opacity:1; 
stroke-linecap:round; stroke-linejoin:round;">
<path d="M99.2100 102.9800
L96.8000 100.5700
" />
</g>
<g style="fill:none; 
stroke:#000000; stroke-width:0.4000; stroke-opacity:1; 
stroke-linecap:round; stroke-linejoin:round;">
<path d="M107.8600 103.1100
L107.5500 103.4200
" />
<path d="M115.0100 107.0600
L115.0100 99.6032
" />
<path d="M93.9600 108.5200
L93.9600 111.5831
" />
<path d="M102.9320 108.5200
L96.2500 108.5200
" />
<path d="M72.8479 117.9859
L71.3740 116.5120
" />
<path d="M109.1407 93.3193
L107.8600 94.6000
" />
<path d="M85.7508 96.0492
L85.7508 95.4539
" />
<path d="M119.6841 118.1961
L123.0640 121.5760
" />
<path d="M86.8300 114.3700
L89.6150 111.5850
" />
<path d="M77.6868 104.1132
L85.7508 96.0492
" />
<path d="M105.3200 103.4200
L103.1700 101.2700
" />
<path d="M115.5448 107.5948
L115.0100 107.0600
" />
<path d="M96.2500 108.5200
L93.9600 108.5200
" />
<path d="M113.5648 98.1579
L113.5648 97.7433
" />
<path d="M118.5041 133.3768
L118.5041 126.1359
" />
<path d="M99.2119 105.5581
L99.2119 102.9800
" />
</g>
<g style="fill:none; 
stroke:#000000; stroke-width:0.6000; stroke-opacity:1; 
stroke-linecap:round; stroke-linejoin:round;">
<path d="M96.8000 100.5700
L96.8000 96.0000
" />
</g>
<g style="fill:none; 
stroke:#000000; stroke-width:0.4000; stroke-opacity:1; 
stroke-linecap:round; stroke-linejoin:round;">
<path d="M110.9980 116.5860
L102.9320 108.5200
" />
<path d="M93.9619 115.3950
L93.9619 117.2819
" />
<path d="M93.9619 117.2819
L98.0500 121.3700
" />
<path d="M91.6400 94.2400
L91.6400 92.4098
" />
<path d="M91.6400 92.4098
L91.6432 92.4066
" />
<path d="M91.6432 92.4066
L91.6432 92.7594
" />
<path d="M96.6000 110.4500
L96.6000 112.8869
" />
<path d="M96.6000 112.8869
L95.3619 114.1250
" />
<path d="M95.3619 114.1250
L93.9619 114.1250
" />
<path d="M101.7900 109.7500
L97.3000 109.7500
" />
<path d="M97.3000 109.7500
L96.6000 110.4500
" />
<path d="M109.3212 104.3088
L106.8800 106.7500
" />
<path d="M109.3212 95.7079
L109.3212 104.3088
" />
<path d="M106.8800 106.7500
L101.7900 106.7500
" />
<path d="M97.6900 113.3269
L97.6900 116.5900
" />
<path d="M99.6000 118.5000
L105.0000 118.5000
" />
<path d="M98.1619 112.8550
L97.6900 113.3269
" />
<path d="M98.7619 134.8740
L98.7619 127.8740
" />
<path d="M99.5619 112.8550
L98.1619 112.8550
" />
<path d="M106.3150 121.0150
L99.4560 127.8740
" />
<path d="M105.0000 118.5000
L106.3150 119.8150
" />
<path d="M99.4560 127.8740
L98.7619 127.8740
" />
<path d="M97.6900 116.5900
L99.6000 118.5000
" />
<path d="M106.3150 119.8150
L106.3150 121.0150
" />
<path d="M92.5619 112.8550
L88.4616 116.9553
" />
<path d="M93.9619 112.8550
L92.5619 112.8550
" />
<path d="M88.4616 116.9553
L88.4616 127.8740
" />
<path d="M88.4616 134.8740
L88.4616 127.8740
" />
<path d="M117.2341 103.3512
L117.2341 97.3194
" />
<path d="M117.2341 97.3194
L115.2148 95.3001
" />
<path d="M123.0640 106.4668
L122.5419 105.9448
" />
<path d="M123.0640 116.6760
L123.0640 106.4668
" />
<path d="M120.9541 126.9859
L126.3640 121.5760
" />
<path d="M120.9541 129.1332
L120.9541 126.9859
" />
<path d="M112.2948 139.8401
L116.5486 139.8401
" />
<path d="M116.5486 139.8401
L121.3619 135.0268
" />
<path d="M99.2240 144.4000
L108.9533 144.4000
" />
<path d="M108.9533 144.4000
L109.7012 145.1479
" />
<path d="M85.6495 142.3401
L88.9641 142.3401
" />
<path d="M88.9641 142.3401
L94.3240 147.7000
" />
<path d="M75.2979 132.8688
L75.2979 138.2899
" />
<path d="M75.2979 138.2899
L79.7560 142.7480
" />
<path d="M71.3740 128.8913
L69.9901 130.2752
" />
<path d="M71.3740 121.4120
L71.3740 128.8913
" />
<path d="M73.1019 111.4841
L68.0740 116.5120
" />
<path d="M73.1019 108.3568
L73.1019 111.4841
" />
<path d="M72.6941 102.4632
L77.2534 97.9039
" />
<path d="M77.2534 97.9039
L81.5072 97.9039
" />
<path d="M84.1008 92.5961
L84.9668 92.5961
" />
<path d="M84.9668 92.5961
L87.1700 94.7993
" />
<path d="M87.1700 97.8100
L92.3400 102.9800
" />
<path d="M87.1700 94.7993
L87.1700 97.8100
" />
<path d="M92.3400 102.9800
L94.3100 102.9800
" />
<path d="M89.9100 95.5100
L91.6400 97.2400
" />
<path d="M77.3540 92.2368
L78.6008 90.9900
" />
<path d="M101.4300 88.4400
L100.7700 87.7800
" />
<path d="M94.4900 89.6900
L94.5000 89.7000
" />
<path d="M89.9100 90.9900
L89.9100 95.5100
" />
<path d="M78.6008 90.9900
L89.9100 90.9900
" />
<path d="M75.7617 92.2368
L72.2490 95.7495
" />
<path d="M100.7700 87.7800
L94.4900 87.7800
" />
<path d="M94.4900 87.7800
L94.4900 89.6900
" />
<path d="M77.3540 92.2368
L75.7617 92.2368
" />
<path d="M106.1700 96.9306
L105.3592 96.1198
" />
<path d="M106.1700 97.9600
L106.1700 96.9306
" />
<path d="M104.4304 92.0400
L104.6988 91.7716
" />
<path d="M104.6988 92.1094
L106.3092 93.7198
" />
<path d="M101.4300 92.0400
L104.4304 92.0400
" />
<path d="M104.6988 91.7716
L104.6988 92.1094
" />
<path d="M101.8000 120.1600
L100.5900 121.3700
" />
<path d="M103.7800 120.1600
L101.8000 120.1600
" />
<path d="M89.8300 118.2500
L92.3900 118.2500
" />
<path d="M92.3900 118.2500
L95.5100 121.3700
" />
</g>
<g style="fill:none; 
stroke:#000000; stroke-width:0.0500; stroke-opacity:1; 
stroke-linecap:round; stroke-linejoin:round;">
<path d="M102.7563 77.0492 A0.4600 0.4600 0.0 0 0 102.2991 76.5384" />
<path d="M70.6441 86.9269 A6.9191 6.9191 0.0 0 0 71.3302 100.7415" />
<path d="M91.2755 76.5384 A0.5108 0.5108 0.0 0 0 90.7647 77.0492" />
<path d="M122.9844 86.8976
L106.2736 86.8976
" />
<path d="M106.2736 86.8976
L102.7563 86.9044
" />
<path d="M70.6441 86.9269
L87.2220 86.9044
" />
<path d="M102.7563 86.9044
L102.7563 77.0492
" />
<path d="M71.3302 100.7414 A31.4022 31.4022 0.0 1 0 122.2983 100.7122" />
<path d="M102.2991 76.5412
L91.2755 76.5384
" />
<path d="M122.2983 100.7122 A6.9191 6.9191 0.0 0 0 122.9844 86.8976" />
<path d="M90.7675 77.0492
L90.7647 86.9044
" />
<path d="M87.2220 86.9044
L90.7647 86.9044
" />
</g> 
</svg>
