<?xml version="1.0" standalone="no"?>
 <!DOCTYPE svg PUBLIC "-//W3C//DTD SVG 1.1//EN" 
 "http://www.w3.org/Graphics/SVG/1.1/DTD/svg11.dtd"> 
<svg
  xmlns:svg="http://www.w3.org/2000/svg"
  xmlns="http://www.w3.org/2000/svg"
  xmlns:xlink="http://www.w3.org/1999/xlink"
  version="1.1"
  width="68.554600mm" height="78.740000mm" viewBox="0.000000 0.000000 68.554600 78.740000">
<title>SVG Image created as pomodoro_timer-B_Cu.svg date 2025/09/08 17:28:26 </title>
  <desc>Image generated by PCBNEW </desc>
<g style="fill:#000000; fill-opacity:1.000000;stroke:#000000; stroke-opacity:1.000000;
stroke-linecap:round; stroke-linejoin:round;"
 transform="translate(0 0) scale(1 1)">
</g>
<g style="fill:#000000; fill-opacity:1.000000; stroke:none;">
<circle cx="9.325741" cy="21.704544" r="1.000000" /> 
</g>
<g style="fill:#000000; fill-opacity:1.000000; stroke:none;">
<circle cx="7.575741" cy="18.673456" r="1.000000" /> 
</g>
<g style="fill:#000000; fill-opacity:1.000000; stroke:none;">
<circle cx="58.629741" cy="20.942544" r="1.000000" /> 
</g>
<g style="fill:#000000; fill-opacity:1.000000; stroke:none;">
<circle cx="60.379741" cy="17.911456" r="1.000000" /> 
</g>
<g style="fill:#000000; fill-opacity:1.000000; stroke:none;">
<circle cx="37.666741" cy="47.325000" r="1.050000" /> 
</g>
<g style="fill:#000000; fill-opacity:1.000000; stroke:none;">
<circle cx="35.126741" cy="47.325000" r="1.050000" /> 
</g>
<g style="fill:#000000; fill-opacity:1.000000; stroke:none;">
<circle cx="32.586741" cy="47.325000" r="1.050000" /> 
</g>
<g style="fill:#000000; fill-opacity:1.000000; stroke:none;">
<circle cx="30.046741" cy="47.325000" r="1.050000" /> 
</g>
<g style="fill:#000000; fill-opacity:1.000000; stroke:none;">
<circle cx="48.074741" cy="42.541000" r="1.050000" /> 
</g>
<g style="fill:#000000; fill-opacity:1.000000; stroke:none;">
<circle cx="48.074741" cy="45.081000" r="1.050000" /> 
</g>
<g style="fill:#000000; fill-opacity:1.000000; stroke:none;">
<circle cx="48.074741" cy="47.621000" r="1.050000" /> 
</g>
<g style="fill:none; 
stroke:#000000; stroke-width:0.400000; stroke-opacity:1; 
stroke-linecap:round; stroke-linejoin:round;">
<path d="M7.746741 11.940584 A7.361741 7.361741 0.0 0 0 6.184249 26.531718" />
<path d="M39.811425 0.795818 A0.460000 0.460000 0.0 0 0 39.354191 0.285000" />
<path d="M28.299291 0.284936 A0.510864 0.510864 0.0 0 0 27.788477 0.795814" />
<path d="M60.853468 11.928415
L39.828853 11.928415
" />
<path d="M39.828853 11.928415
L39.811325 0.795814
" />
<path d="M6.185189 26.526785 A33.325254 33.325254 0.0 1 0 61.686399 26.629814" />
<path d="M39.354191 0.285000
L28.299291 0.285000
" />
<path d="M27.788477 0.795814
L27.805927 11.955000
" />
<path d="M27.805927 11.955000
L7.746741 11.940584
" />
<path d="M61.686399 26.629864 A7.371743 7.371743 0.0 0 0 60.853467 11.928415" />
</g> 
</svg>
