<?xml version="1.0" standalone="no"?>
 <!DOCTYPE svg PUBLIC "-//W3C//DTD SVG 1.1//EN" 
 "http://www.w3.org/Graphics/SVG/1.1/DTD/svg11.dtd"> 
<svg
  xmlns:svg="http://www.w3.org/2000/svg"
  xmlns="http://www.w3.org/2000/svg"
  xmlns:xlink="http://www.w3.org/1999/xlink"
  version="1.1"
  width="297.0022mm" height="210.0072mm" viewBox="0.0000 0.0000 297.0022 210.0072">
<title>SVG Image created as pomodoro_timer-Edge_Cuts.svg date 2025/04/02 09:21:02 </title>
  <desc>Image generated by PCBNEW </desc>
<g style="fill:#000000; fill-opacity:1.0000;stroke:#000000; stroke-opacity:1.0000;
stroke-linecap:round; stroke-linejoin:round;"
 transform="translate(0 0) scale(1 1)">
</g>
<g style="fill:none; 
stroke:#000000; stroke-width:0.0500; stroke-opacity:1; 
stroke-linecap:round; stroke-linejoin:round;">
<path d="M102.7563 77.0492 A0.4600 0.4600 0.0 0 0 102.2991 76.5384" />
<path d="M70.6441 86.9269 A6.9191 6.9191 0.0 0 0 71.3302 100.7415" />
<path d="M91.2755 76.5384 A0.5108 0.5108 0.0 0 0 90.7647 77.0492" />
<path d="M122.9844 86.8976
L106.2736 86.8976
" />
<path d="M106.2736 86.8976
L102.7563 86.9044
" />
<path d="M70.6441 86.9269
L87.2220 86.9044
" />
<path d="M102.7563 86.9044
L102.7563 77.0492
" />
<path d="M71.3302 100.7414 A31.4022 31.4022 0.0 1 0 122.2983 100.7122" />
<path d="M102.2991 76.5412
L91.2755 76.5384
" />
<path d="M122.2983 100.7122 A6.9191 6.9191 0.0 0 0 122.9844 86.8976" />
<path d="M90.7675 77.0492
L90.7647 86.9044
" />
<path d="M87.2220 86.9044
L90.7647 86.9044
" />
</g> 
</svg>
