<?xml version="1.0" standalone="no"?>
 <!DOCTYPE svg PUBLIC "-//W3C//DTD SVG 1.1//EN" 
 "http://www.w3.org/Graphics/SVG/1.1/DTD/svg11.dtd"> 
<svg
  xmlns:svg="http://www.w3.org/2000/svg"
  xmlns="http://www.w3.org/2000/svg"
  xmlns:xlink="http://www.w3.org/1999/xlink"
  version="1.1"
  width="297.0022mm" height="210.0072mm" viewBox="0.0000 0.0000 297.0022 210.0072">
<title>SVG Image created as pomodoro_timer-NPTH-drl_map.svg date 2025/09/08 14:37:00 </title>
  <desc>Image generated by PCBNEW </desc>
<g style="fill:#000000; fill-opacity:1.0000;stroke:#000000; stroke-opacity:1.0000;
stroke-linecap:round; stroke-linejoin:round;"
 transform="translate(0 0) scale(1 1)">
</g>
<g style="fill:none; 
stroke:#000000; stroke-width:0.5913; stroke-opacity:1; 
stroke-linecap:round; stroke-linejoin:round;">
<path d="M138.9943 22.5476
L109.3404 22.5263
" />
<path d="M109.3404 22.5263 A10.8830 10.8830 0.0 0 0 107.0306 44.0967" />
<path d="M156.7680 22.5083
L156.7421 6.0508
" />
<path d="M138.9685 6.0508
L138.9943 22.5476
" />
<path d="M187.8491 22.5083
L156.7680 22.5083
" />
<path d="M107.0320 44.0894 A49.2653 49.2653 0.0 1 0 189.0804 44.2417" />
<path d="M189.0804 44.2418 A10.8978 10.8978 0.0 0 0 187.8491 22.5083" />
<path d="M156.7422 6.0508 A0.6801 0.6801 0.0 0 0 156.0663 5.2957" />
<path d="M139.7237 5.2957 A0.7552 0.7552 0.0 0 0 138.9685 6.0508" />
<path d="M156.0663 5.2957
L139.7237 5.2957
" />
</g>
<g style="fill:none; 
stroke:#000000; stroke-width:0.2000; stroke-opacity:1; 
stroke-linecap:round; stroke-linejoin:round;">
<text x="99.8883" y="124.2043"
textLength="14.8667" font-size="2.6667" lengthAdjust="spacingAndGlyphs"
text-anchor="start" opacity="0" stroke-opacity="0">Drill Map:</text>
<g class="stroked-text"><desc>Drill Map:</desc>
<path d="M100.4961 124.1192
L100.4961 122.1192
" />
<path d="M100.4961 122.1192
L100.9723 122.1192
" />
<path d="M100.9723 122.1192
L101.2580 122.2144
" />
<path d="M101.2580 122.2144
L101.4484 122.4049
" />
<path d="M101.4484 122.4049
L101.5437 122.5953
" />
<path d="M101.5437 122.5953
L101.6389 122.9763
" />
<path d="M101.6389 122.9763
L101.6389 123.2620
" />
<path d="M101.6389 123.2620
L101.5437 123.6430
" />
<path d="M101.5437 123.6430
L101.4484 123.8334
" />
<path d="M101.4484 123.8334
L101.2580 124.0239
" />
<path d="M101.2580 124.0239
L100.9723 124.1192
" />
<path d="M100.9723 124.1192
L100.4961 124.1192
" />
<path d="M102.4961 124.1192
L102.4961 122.7858
" />
<path d="M102.4961 123.1668
L102.5913 122.9763
" />
<path d="M102.5913 122.9763
L102.6865 122.8811
" />
<path d="M102.6865 122.8811
L102.8770 122.7858
" />
<path d="M102.8770 122.7858
L103.0675 122.7858
" />
<path d="M103.7342 124.1192
L103.7342 122.7858
" />
<path d="M103.7342 122.1192
L103.6389 122.2144
" />
<path d="M103.6389 122.2144
L103.7342 122.3096
" />
<path d="M103.7342 122.3096
L103.8294 122.2144
" />
<path d="M103.8294 122.2144
L103.7342 122.1192
" />
<path d="M103.7342 122.1192
L103.7342 122.3096
" />
<path d="M104.9722 124.1192
L104.7818 124.0239
" />
<path d="M104.7818 124.0239
L104.6865 123.8334
" />
<path d="M104.6865 123.8334
L104.6865 122.1192
" />
<path d="M106.0199 124.1192
L105.8294 124.0239
" />
<path d="M105.8294 124.0239
L105.7342 123.8334
" />
<path d="M105.7342 123.8334
L105.7342 122.1192
" />
<path d="M108.3056 124.1192
L108.3056 122.1192
" />
<path d="M108.3056 122.1192
L108.9722 123.5477
" />
<path d="M108.9722 123.5477
L109.6389 122.1192
" />
<path d="M109.6389 122.1192
L109.6389 124.1192
" />
<path d="M111.4484 124.1192
L111.4484 123.0715
" />
<path d="M111.4484 123.0715
L111.3532 122.8811
" />
<path d="M111.3532 122.8811
L111.1627 122.7858
" />
<path d="M111.1627 122.7858
L110.7818 122.7858
" />
<path d="M110.7818 122.7858
L110.5913 122.8811
" />
<path d="M111.4484 124.0239
L111.2580 124.1192
" />
<path d="M111.2580 124.1192
L110.7818 124.1192
" />
<path d="M110.7818 124.1192
L110.5913 124.0239
" />
<path d="M110.5913 124.0239
L110.4961 123.8334
" />
<path d="M110.4961 123.8334
L110.4961 123.6430
" />
<path d="M110.4961 123.6430
L110.5913 123.4525
" />
<path d="M110.5913 123.4525
L110.7818 123.3573
" />
<path d="M110.7818 123.3573
L111.2580 123.3573
" />
<path d="M111.2580 123.3573
L111.4484 123.2620
" />
<path d="M112.4008 122.7858
L112.4008 124.7858
" />
<path d="M112.4008 122.8811
L112.5913 122.7858
" />
<path d="M112.5913 122.7858
L112.9722 122.7858
" />
<path d="M112.9722 122.7858
L113.1627 122.8811
" />
<path d="M113.1627 122.8811
L113.2580 122.9763
" />
<path d="M113.2580 122.9763
L113.3532 123.1668
" />
<path d="M113.3532 123.1668
L113.3532 123.7382
" />
<path d="M113.3532 123.7382
L113.2580 123.9287
" />
<path d="M113.2580 123.9287
L113.1627 124.0239
" />
<path d="M113.1627 124.0239
L112.9722 124.1192
" />
<path d="M112.9722 124.1192
L112.5913 124.1192
" />
<path d="M112.5913 124.1192
L112.4008 124.0239
" />
<path d="M114.2103 123.9287
L114.3056 124.0239
" />
<path d="M114.3056 124.0239
L114.2103 124.1192
" />
<path d="M114.2103 124.1192
L114.1151 124.0239
" />
<path d="M114.1151 124.0239
L114.2103 123.9287
" />
<path d="M114.2103 123.9287
L114.2103 124.1192
" />
<path d="M114.2103 122.8811
L114.3056 122.9763
" />
<path d="M114.3056 122.9763
L114.2103 123.0715
" />
<path d="M114.2103 123.0715
L114.1151 122.9763
" />
<path d="M114.1151 122.9763
L114.2103 122.8811
" />
<path d="M114.2103 122.8811
L114.2103 123.0715
" />
</g></g> 
</svg>
