<?xml version="1.0" encoding="UTF-8" standalone="no"?>
<svg
   height="81.5mm"
   version="1.2"
   viewBox="0 0 715 815"
   width="71.5mm"
   id="svg33"
   sodipodi:docname="pomodoro_timer-Edge_Cuts_Holes.svg"
   inkscape:export-filename="pomodoro_timer-Edge_Cuts_Holes.png"
   inkscape:export-xdpi="1000"
   inkscape:export-ydpi="1000"
   inkscape:version="1.4.2 (ebf0e940d0, 2025-05-08)"
   xmlns:inkscape="http://www.inkscape.org/namespaces/inkscape"
   xmlns:sodipodi="http://sodipodi.sourceforge.net/DTD/sodipodi-0.dtd"
   xmlns="http://www.w3.org/2000/svg"
   xmlns:svg="http://www.w3.org/2000/svg"
   xmlns:rdf="http://www.w3.org/1999/02/22-rdf-syntax-ns#"
   xmlns:cc="http://creativecommons.org/ns#"
   xmlns:dc="http://purl.org/dc/elements/1.1/">
  <sodipodi:namedview
     id="namedview33"
     pagecolor="#505050"
     bordercolor="#eeeeee"
     borderopacity="1"
     inkscape:showpageshadow="0"
     inkscape:pageopacity="0"
     inkscape:pagecheckerboard="0"
     inkscape:deskcolor="#505050"
     inkscape:document-units="mm"
     inkscape:export-bgcolor="#ffffffff"
     inkscape:zoom="2.5400362"
     inkscape:cx="81.888596"
     inkscape:cy="158.26546"
     inkscape:window-width="1920"
     inkscape:window-height="1025"
     inkscape:window-x="0"
     inkscape:window-y="0"
     inkscape:window-maximized="0"
     inkscape:current-layer="Page" />
  <title
     id="title1">FreeCAD SVG Export</title>
  <desc
     id="desc1">Drawing page: Page exported from FreeCAD document: Unnamed</desc>
  <defs
     id="defs1" />
  <g
     id="Page"
     inkscape:groupmode="layer"
     inkscape:label="TechDraw"
     transform="translate(-1144.1278,-659.148)">
    <g
       id="g35"
       transform="translate(11.629982,11.650009)">
      <g
         id="g34"
         transform="translate(4.9994795,4.9987542)">
        <g
           id="Default_Template_A4_Landscape.svg"
           style="fill:none;stroke:#000000;stroke-width:0.1;stroke-dasharray:none"
           transform="scale(10)">
          <metadata
             id="metadata8">
            <rdf:RDF>
              <cc:Work
                 rdf:about="">
                <dc:format>image/svg+xml</dc:format>
                <dc:type
                   rdf:resource="http://purl.org/dc/dcmitype/StillImage" />
                <dc:title>FreeCAD SVG Export</dc:title>
              </cc:Work>
            </rdf:RDF>
          </metadata>
        </g>
        <g
           fill="#f1f3f5"
           fill-opacity="0"
           font-family="'Noto Sans'"
           font-size="42.3333px"
           font-style="normal"
           font-weight="400"
           stroke="none"
           transform="translate(1485,1050)"
           id="g1"
           style="fill:none;fill-rule:evenodd;stroke:#000000;stroke-width:1;stroke-linecap:square;stroke-linejoin:bevel;stroke-dasharray:none">
          <path
             d="m 266.167,-273.918 c 39.279,-0.257 71.86,30.329 74.082,69.546 2.222,39.216 -26.696,73.287 -65.752,77.468 v 0 C 366.731,12.3602 341.613,198.394 215.748,308.211 89.8828,418.027 -97.8386,417.696 -223.315,307.435 -348.79,197.174 -373.251,11.0523 -280.525,-127.885 v 0 c -37.656,-7.173 -63.505,-42.041 -59.424,-80.156 4.082,-38.115 36.728,-66.719 75.049,-65.755 l 200.5919,0.144 -0.1745,-111.592 c 0,-2.821 2.287,-5.108 5.1081,-5.108 h 110.549 c 1.3085,0 2.5551,0.557 3.4277,1.532 0.8726,0.975 1.2885,2.275 1.1436,3.576 l 0.1753,111.326 H 266.167"
             fill-rule="evenodd"
             vector-effect="non-scaling-stroke"
             id="path1"
             style="fill:none;stroke:#000000;stroke-width:1;stroke-dasharray:none" />
        </g>
        <g
           fill="#f1f3f5"
           fill-opacity="0"
           font-family="'Noto Sans'"
           font-size="42.3333px"
           font-style="normal"
           font-weight="400"
           stroke="none"
           transform="translate(1485,1050)"
           id="g2"
           style="fill:#000000;fill-rule:evenodd;stroke:none;stroke-width:1;stroke-linecap:square;stroke-linejoin:bevel;stroke-dasharray:none">
          <path
             d="m -9.5,80.0477 c 0,3.866 -3.134,7 -7,7 -3.866,0 -7,-3.134 -7,-7 0,-3.866 3.134,-7 7,-7 3.866,0 7,3.134 7,7"
             fill-rule="evenodd"
             vector-effect="non-scaling-stroke"
             id="path2"
             style="fill:#000000;stroke:none;stroke-width:1;stroke-dasharray:none" />
        </g>
        <g
           fill="#f1f3f5"
           fill-opacity="0"
           font-family="'Noto Sans'"
           font-size="42.3333px"
           font-style="normal"
           font-weight="400"
           stroke="none"
           transform="translate(1485,1050)"
           id="g3"
           style="fill:#000000;fill-rule:evenodd;stroke:none;stroke-width:1;stroke-linecap:square;stroke-linejoin:bevel;stroke-dasharray:none">
          <path
             d="m 145.38,83.0077 c 0,3.866 -3.134,7 -7,7 -3.866,0 -7,-3.134 -7,-7 0,-3.866 3.134,-7 7,-7 3.866,0 7,3.134 7,7"
             fill-rule="evenodd"
             vector-effect="non-scaling-stroke"
             id="path3"
             style="fill:#000000;stroke:none;stroke-width:1;stroke-dasharray:none" />
        </g>
        <g
           fill="#f1f3f5"
           fill-opacity="0"
           font-family="'Noto Sans'"
           font-size="42.3333px"
           font-style="normal"
           font-weight="400"
           stroke="none"
           transform="translate(1485,1050)"
           id="g4"
           style="fill:#000000;fill-rule:evenodd;stroke:none;stroke-width:1;stroke-linecap:square;stroke-linejoin:bevel;stroke-dasharray:none">
          <path
             d="m -34.9,80.0477 c 0,3.866 -3.134,7 -7,7 -3.866,0 -7,-3.134 -7,-7 0,-3.866 3.134,-7 7,-7 3.866,0 7,3.134 7,7"
             fill-rule="evenodd"
             vector-effect="non-scaling-stroke"
             id="path4"
             style="fill:#000000;stroke:none;stroke-width:1;stroke-dasharray:none" />
        </g>
        <g
           fill="#f1f3f5"
           fill-opacity="0"
           font-family="'Noto Sans'"
           font-size="42.3333px"
           font-style="normal"
           font-weight="400"
           stroke="none"
           transform="translate(1485,1050)"
           id="g5"
           style="fill:#000000;fill-rule:evenodd;stroke:none;stroke-width:1;stroke-linecap:square;stroke-linejoin:bevel;stroke-dasharray:none">
          <path
             d="m 145.38,32.2077 c 0,3.866 -3.134,7 -7,7 -3.866,0 -7,-3.134 -7,-7 0,-3.866 3.134,-7 7,-7 3.866,0 7,3.134 7,7"
             fill-rule="evenodd"
             vector-effect="non-scaling-stroke"
             id="path5"
             style="fill:#000000;stroke:none;stroke-width:1;stroke-dasharray:none" />
        </g>
        <g
           fill="#f1f3f5"
           fill-opacity="0"
           font-family="'Noto Sans'"
           font-size="42.3333px"
           font-style="normal"
           font-weight="400"
           stroke="none"
           transform="translate(1485,1050)"
           id="g6"
           style="fill:#000000;fill-rule:evenodd;stroke:none;stroke-width:1;stroke-linecap:square;stroke-linejoin:bevel;stroke-dasharray:none">
          <path
             d="m 15.9,80.0477 c 0,3.866 -3.134,7 -7,7 -3.866,0 -7,-3.134 -7,-7 0,-3.866 3.134,-7 7,-7 3.866,0 7,3.134 7,7"
             fill-rule="evenodd"
             vector-effect="non-scaling-stroke"
             id="path6"
             style="fill:#000000;stroke:none;stroke-width:1;stroke-dasharray:none" />
        </g>
        <g
           fill="#f1f3f5"
           fill-opacity="0"
           font-family="'Noto Sans'"
           font-size="42.3333px"
           font-style="normal"
           font-weight="400"
           stroke="none"
           transform="translate(1485,1050)"
           id="g7"
           style="fill:#000000;fill-rule:evenodd;stroke:none;stroke-width:1;stroke-linecap:square;stroke-linejoin:bevel;stroke-dasharray:none">
          <path
             d="m 41.3,80.0477 c 0,3.866 -3.134,7 -7,7 -3.866,0 -7,-3.134 -7,-7 0,-3.866 3.134,-7 7,-7 3.866,0 7,3.134 7,7"
             fill-rule="evenodd"
             vector-effect="non-scaling-stroke"
             id="path7"
             style="fill:#000000;stroke:none;stroke-width:1;stroke-dasharray:none" />
        </g>
        <g
           fill="#f1f3f5"
           fill-opacity="0"
           font-family="'Noto Sans'"
           font-size="42.3333px"
           font-style="normal"
           font-weight="400"
           stroke="none"
           transform="translate(1485,1050)"
           id="g8"
           style="fill:#000000;fill-rule:evenodd;stroke:none;stroke-width:1;stroke-linecap:square;stroke-linejoin:bevel;stroke-dasharray:none">
          <path
             d="m 145.38,57.6077 c 0,3.866 -3.134,7 -7,7 -3.866,0 -7,-3.134 -7,-7 0,-3.866 3.134,-7 7,-7 3.866,0 7,3.134 7,7"
             fill-rule="evenodd"
             vector-effect="non-scaling-stroke"
             id="path8"
             style="fill:#000000;stroke:none;stroke-width:1;stroke-dasharray:none" />
        </g>
        <g
           fill="#f1f3f5"
           fill-opacity="0"
           font-family="'Noto Sans'"
           font-size="42.3333px"
           font-style="normal"
           font-weight="400"
           stroke="none"
           transform="translate(1485,1050)"
           id="g9"
           style="fill:#000000;fill-rule:evenodd;stroke:none;stroke-width:1;stroke-linecap:square;stroke-linejoin:bevel;stroke-dasharray:none">
          <path
             d="m 247.93,-183.777 c 0,2.209 -1.791,4 -4,4 -2.209,0 -4,-1.791 -4,-4 0,-2.209 1.791,-4 4,-4 2.209,0 4,1.791 4,4"
             fill-rule="evenodd"
             vector-effect="non-scaling-stroke"
             id="path9"
             style="fill:#000000;stroke:none;stroke-width:1;stroke-dasharray:none" />
        </g>
        <g
           fill="#f1f3f5"
           fill-opacity="0"
           font-family="'Noto Sans'"
           font-size="42.3333px"
           font-style="normal"
           font-weight="400"
           stroke="none"
           transform="translate(1485,1050)"
           id="g10"
           style="fill:#000000;fill-rule:evenodd;stroke:none;stroke-width:1;stroke-linecap:square;stroke-linejoin:bevel;stroke-dasharray:none">
          <path
             d="m 265.43,-214.088 c 0,2.209 -1.791,4 -4,4 -2.209,0 -4,-1.791 -4,-4 0,-2.209 1.791,-4 4,-4 2.209,0 4,1.791 4,4"
             fill-rule="evenodd"
             vector-effect="non-scaling-stroke"
             id="path10"
             style="fill:#000000;stroke:none;stroke-width:1;stroke-dasharray:none" />
        </g>
        <g
           fill="#f1f3f5"
           fill-opacity="0"
           font-family="'Noto Sans'"
           font-size="42.3333px"
           font-style="normal"
           font-weight="400"
           stroke="none"
           transform="translate(1485,1050)"
           id="g11"
           style="fill:#000000;fill-rule:evenodd;stroke:none;stroke-width:1;stroke-linecap:square;stroke-linejoin:bevel;stroke-dasharray:none">
          <path
             d="m -262.61,-206.468 c 0,2.209 -1.791,4 -4,4 -2.209,0 -4,-1.791 -4,-4 0,-2.209 1.791,-4 4,-4 2.209,0 4,1.791 4,4"
             fill-rule="evenodd"
             vector-effect="non-scaling-stroke"
             id="path11"
             style="fill:#000000;stroke:none;stroke-width:1;stroke-dasharray:none" />
        </g>
        <g
           fill="#f1f3f5"
           fill-opacity="0"
           font-family="'Noto Sans'"
           font-size="42.3333px"
           font-style="normal"
           font-weight="400"
           stroke="none"
           transform="translate(1485,1050)"
           id="g12"
           style="fill:#000000;fill-rule:evenodd;stroke:none;stroke-width:1;stroke-linecap:square;stroke-linejoin:bevel;stroke-dasharray:none">
          <path
             d="m -245.11,-176.157 c 0,2.209 -1.791,4 -4,4 -2.209,0 -4,-1.791 -4,-4 0,-2.209 1.791,-4 4,-4 2.209,0 4,1.791 4,4"
             fill-rule="evenodd"
             vector-effect="non-scaling-stroke"
             id="path12"
             style="fill:#000000;stroke:none;stroke-width:1;stroke-dasharray:none" />
        </g>
        <g
           fill="none"
           font-family="'Noto Sans'"
           font-size="42.3333px"
           font-style="normal"
           font-weight="400"
           stroke="#000000"
           stroke-linecap="round"
           stroke-linejoin="bevel"
           stroke-opacity="1"
           stroke-width="7"
           transform="translate(1485,1050)"
           id="g13"
           style="fill:none;fill-rule:evenodd;stroke:#000000;stroke-width:1;stroke-dasharray:none">
          <path
             d="m 51.1745,-390.352 c 1.3085,0 2.5551,0.557 3.4277,1.532 0.8726,0.975 1.2885,2.275 1.1436,3.576"
             fill-rule="evenodd"
             vector-effect="none"
             id="path13"
             style="fill:none;stroke:#000000;stroke-width:1;stroke-dasharray:none" />
        </g>
        <g
           fill="none"
           font-family="'Noto Sans'"
           font-size="42.3333px"
           font-style="normal"
           font-weight="400"
           stroke="#000000"
           stroke-linecap="round"
           stroke-linejoin="bevel"
           stroke-opacity="1"
           stroke-width="7"
           transform="translate(1485,1050)"
           id="g14"
           style="fill:none;fill-rule:evenodd;stroke:#000000;stroke-width:1;stroke-dasharray:none">
          <path
             d="M -59.3745,-390.352 H 51.1745"
             fill-rule="evenodd"
             vector-effect="none"
             id="path14"
             style="fill:none;stroke:#000000;stroke-width:1;stroke-dasharray:none" />
        </g>
        <g
           fill="none"
           font-family="'Noto Sans'"
           font-size="42.3333px"
           font-style="normal"
           font-weight="400"
           stroke="#000000"
           stroke-linecap="round"
           stroke-linejoin="bevel"
           stroke-opacity="1"
           stroke-width="7"
           transform="translate(1485,1050)"
           id="g15"
           style="fill:none;fill-rule:evenodd;stroke:#000000;stroke-width:1;stroke-dasharray:none">
          <path
             d="m 55.7458,-385.244 0.1753,111.326"
             fill-rule="evenodd"
             vector-effect="none"
             id="path15"
             style="fill:none;stroke:#000000;stroke-width:1;stroke-dasharray:none" />
        </g>
        <g
           fill="none"
           font-family="'Noto Sans'"
           font-size="42.3333px"
           font-style="normal"
           font-weight="400"
           stroke="#000000"
           stroke-linecap="round"
           stroke-linejoin="bevel"
           stroke-opacity="1"
           stroke-width="7"
           transform="translate(1485,1050)"
           id="g16"
           style="fill:none;fill-rule:evenodd;stroke:#000000;stroke-width:1;stroke-dasharray:none">
          <path
             d="m -64.4826,-385.244 c 0,-2.821 2.287,-5.108 5.1081,-5.108"
             fill-rule="evenodd"
             vector-effect="none"
             id="path16"
             style="fill:none;stroke:#000000;stroke-width:1;stroke-dasharray:none" />
        </g>
        <g
           fill="none"
           font-family="'Noto Sans'"
           font-size="42.3333px"
           font-style="normal"
           font-weight="400"
           stroke="#000000"
           stroke-linecap="round"
           stroke-linejoin="bevel"
           stroke-opacity="1"
           stroke-width="7"
           transform="translate(1485,1050)"
           id="g17"
           style="fill:none;fill-rule:evenodd;stroke:#000000;stroke-width:1;stroke-dasharray:none">
          <path
             d="m -64.3081,-273.652 -0.1745,-111.592"
             fill-rule="evenodd"
             vector-effect="none"
             id="path17"
             style="fill:none;stroke:#000000;stroke-width:1;stroke-dasharray:none" />
        </g>
        <g
           fill="none"
           font-family="'Noto Sans'"
           font-size="42.3333px"
           font-style="normal"
           font-weight="400"
           stroke="#000000"
           stroke-linecap="round"
           stroke-linejoin="bevel"
           stroke-opacity="1"
           stroke-width="7"
           transform="translate(1485,1050)"
           id="g18"
           style="fill:none;fill-rule:evenodd;stroke:#000000;stroke-width:1;stroke-dasharray:none">
          <path
             d="m -264.9,-273.796 200.5919,0.144"
             fill-rule="evenodd"
             vector-effect="none"
             id="path18"
             style="fill:none;stroke:#000000;stroke-width:1;stroke-dasharray:none" />
        </g>
        <g
           fill="none"
           font-family="'Noto Sans'"
           font-size="42.3333px"
           font-style="normal"
           font-weight="400"
           stroke="#000000"
           stroke-linecap="round"
           stroke-linejoin="bevel"
           stroke-opacity="1"
           stroke-width="7"
           transform="translate(1485,1050)"
           id="g19"
           style="fill:none;fill-rule:evenodd;stroke:#000000;stroke-width:1;stroke-dasharray:none">
          <path
             d="m -280.525,-127.885 c -37.656,-7.173 -63.505,-42.041 -59.424,-80.156 4.082,-38.115 36.728,-66.719 75.049,-65.755"
             fill-rule="evenodd"
             vector-effect="none"
             id="path19"
             style="fill:none;stroke:#000000;stroke-width:1;stroke-dasharray:none" />
        </g>
        <g
           fill="none"
           font-family="'Noto Sans'"
           font-size="42.3333px"
           font-style="normal"
           font-weight="400"
           stroke="#000000"
           stroke-linecap="round"
           stroke-linejoin="bevel"
           stroke-opacity="1"
           stroke-width="7"
           transform="translate(1485,1050)"
           id="g20"
           style="fill:none;fill-rule:evenodd;stroke:#000000;stroke-width:1;stroke-dasharray:none">
          <path
             d="M 274.497,-126.904 C 366.731,12.3602 341.613,198.394 215.748,308.211 89.8828,418.027 -97.8386,417.696 -223.315,307.435 -348.79,197.174 -373.251,11.0523 -280.525,-127.885"
             fill-rule="evenodd"
             vector-effect="none"
             id="path20"
             style="fill:none;stroke:#000000;stroke-width:1;stroke-dasharray:none" />
        </g>
        <g
           fill="none"
           font-family="'Noto Sans'"
           font-size="42.3333px"
           font-style="normal"
           font-weight="400"
           stroke="#000000"
           stroke-linecap="round"
           stroke-linejoin="bevel"
           stroke-opacity="1"
           stroke-width="7"
           transform="translate(1485,1050)"
           id="g21"
           style="fill:none;fill-rule:evenodd;stroke:#000000;stroke-width:1;stroke-dasharray:none">
          <path
             d="m 266.167,-273.918 c 39.279,-0.257 71.86,30.329 74.082,69.546 2.222,39.216 -26.696,73.287 -65.752,77.468"
             fill-rule="evenodd"
             vector-effect="none"
             id="path21"
             style="fill:none;stroke:#000000;stroke-width:1;stroke-dasharray:none" />
        </g>
        <g
           fill="none"
           font-family="'Noto Sans'"
           font-size="42.3333px"
           font-style="normal"
           font-weight="400"
           stroke="#000000"
           stroke-linecap="round"
           stroke-linejoin="bevel"
           stroke-opacity="1"
           stroke-width="7"
           transform="translate(1485,1050)"
           id="g22"
           style="fill:none;fill-rule:evenodd;stroke:#000000;stroke-width:1;stroke-dasharray:none">
          <path
             d="M 55.9211,-273.918 H 266.167"
             fill-rule="evenodd"
             vector-effect="none"
             id="path22"
             style="fill:none;stroke:#000000;stroke-width:1;stroke-dasharray:none" />
        </g>
        <g
           fill="none"
           font-family="'Noto Sans'"
           font-size="42.3333px"
           font-style="normal"
           font-weight="400"
           stroke="#000000"
           stroke-linecap="round"
           stroke-linejoin="bevel"
           stroke-opacity="1"
           stroke-width="7"
           transform="translate(1485,1050)"
           id="g23"
           style="fill:#000000;fill-rule:evenodd;stroke:none;stroke-width:1;stroke-dasharray:none">
          <path
             d="m -34.9,80.0477 c 0,3.866 -3.134,7 -7,7 -3.866,0 -7,-3.134 -7,-7 0,-3.866 3.134,-7 7,-7 3.866,0 7,3.134 7,7"
             fill-rule="evenodd"
             vector-effect="none"
             id="path23"
             style="fill:#000000;stroke:none;stroke-width:1;stroke-dasharray:none" />
        </g>
        <g
           fill="none"
           font-family="'Noto Sans'"
           font-size="42.3333px"
           font-style="normal"
           font-weight="400"
           stroke="#000000"
           stroke-linecap="round"
           stroke-linejoin="bevel"
           stroke-opacity="1"
           stroke-width="7"
           transform="translate(1485,1050)"
           id="g24"
           style="fill:#000000;fill-rule:evenodd;stroke:none;stroke-width:1;stroke-dasharray:none">
          <path
             d="m -9.5,80.0477 c 0,3.866 -3.134,7 -7,7 -3.866,0 -7,-3.134 -7,-7 0,-3.866 3.134,-7 7,-7 3.866,0 7,3.134 7,7"
             fill-rule="evenodd"
             vector-effect="none"
             id="path24"
             style="fill:#000000;stroke:none;stroke-width:1;stroke-dasharray:none" />
        </g>
        <g
           fill="none"
           font-family="'Noto Sans'"
           font-size="42.3333px"
           font-style="normal"
           font-weight="400"
           stroke="#000000"
           stroke-linecap="round"
           stroke-linejoin="bevel"
           stroke-opacity="1"
           stroke-width="7"
           transform="translate(1485,1050)"
           id="g25"
           style="fill:#000000;fill-rule:evenodd;stroke:none;stroke-width:1;stroke-dasharray:none">
          <path
             d="m 15.9,80.0477 c 0,3.866 -3.134,7 -7,7 -3.866,0 -7,-3.134 -7,-7 0,-3.866 3.134,-7 7,-7 3.866,0 7,3.134 7,7"
             fill-rule="evenodd"
             vector-effect="none"
             id="path25"
             style="fill:#000000;stroke:none;stroke-width:1;stroke-dasharray:none" />
        </g>
        <g
           fill="none"
           font-family="'Noto Sans'"
           font-size="42.3333px"
           font-style="normal"
           font-weight="400"
           stroke="#000000"
           stroke-linecap="round"
           stroke-linejoin="bevel"
           stroke-opacity="1"
           stroke-width="7"
           transform="translate(1485,1050)"
           id="g26"
           style="fill:#000000;fill-rule:evenodd;stroke:none;stroke-width:1;stroke-dasharray:none">
          <path
             d="m 41.3,80.0477 c 0,3.866 -3.134,7 -7,7 -3.866,0 -7,-3.134 -7,-7 0,-3.866 3.134,-7 7,-7 3.866,0 7,3.134 7,7"
             fill-rule="evenodd"
             vector-effect="none"
             id="path26"
             style="fill:#000000;stroke:none;stroke-width:1;stroke-dasharray:none" />
        </g>
        <g
           fill="none"
           font-family="'Noto Sans'"
           font-size="42.3333px"
           font-style="normal"
           font-weight="400"
           stroke="#000000"
           stroke-linecap="round"
           stroke-linejoin="bevel"
           stroke-opacity="1"
           stroke-width="7"
           transform="translate(1485,1050)"
           id="g27"
           style="fill:#000000;fill-rule:evenodd;stroke:none;stroke-width:1;stroke-dasharray:none">
          <path
             d="m 145.38,83.0077 c 0,3.866 -3.134,7 -7,7 -3.866,0 -7,-3.134 -7,-7 0,-3.866 3.134,-7 7,-7 3.866,0 7,3.134 7,7"
             fill-rule="evenodd"
             vector-effect="none"
             id="path27"
             style="fill:#000000;stroke:none;stroke-width:1;stroke-dasharray:none" />
        </g>
        <g
           fill="none"
           font-family="'Noto Sans'"
           font-size="42.3333px"
           font-style="normal"
           font-weight="400"
           stroke="#000000"
           stroke-linecap="round"
           stroke-linejoin="bevel"
           stroke-opacity="1"
           stroke-width="7"
           transform="translate(1485,1050)"
           id="g28"
           style="fill:#000000;fill-rule:evenodd;stroke:none;stroke-width:1;stroke-dasharray:none">
          <path
             d="m 145.38,57.6077 c 0,3.866 -3.134,7 -7,7 -3.866,0 -7,-3.134 -7,-7 0,-3.866 3.134,-7 7,-7 3.866,0 7,3.134 7,7"
             fill-rule="evenodd"
             vector-effect="none"
             id="path28"
             style="fill:#000000;stroke:none;stroke-width:1;stroke-dasharray:none" />
        </g>
        <g
           fill="none"
           font-family="'Noto Sans'"
           font-size="42.3333px"
           font-style="normal"
           font-weight="400"
           stroke="#000000"
           stroke-linecap="round"
           stroke-linejoin="bevel"
           stroke-opacity="1"
           stroke-width="7"
           transform="translate(1485,1050)"
           id="g29"
           style="fill:#000000;fill-rule:evenodd;stroke:none;stroke-width:1;stroke-dasharray:none">
          <path
             d="m 145.38,32.2077 c 0,3.866 -3.134,7 -7,7 -3.866,0 -7,-3.134 -7,-7 0,-3.866 3.134,-7 7,-7 3.866,0 7,3.134 7,7"
             fill-rule="evenodd"
             vector-effect="none"
             id="path29"
             style="fill:#000000;stroke:none;stroke-width:1;stroke-dasharray:none" />
        </g>
        <g
           fill="none"
           font-family="'Noto Sans'"
           font-size="42.3333px"
           font-style="normal"
           font-weight="400"
           stroke="#000000"
           stroke-linecap="round"
           stroke-linejoin="bevel"
           stroke-opacity="1"
           stroke-width="7"
           transform="translate(1485,1050)"
           id="g30"
           style="fill:#000000;fill-rule:evenodd;stroke:none;stroke-width:1;stroke-dasharray:none">
          <path
             d="m -245.11,-176.157 c 0,2.209 -1.791,4 -4,4 -2.209,0 -4,-1.791 -4,-4 0,-2.209 1.791,-4 4,-4 2.209,0 4,1.791 4,4"
             fill-rule="evenodd"
             vector-effect="none"
             id="path30"
             style="fill:#000000;stroke:none;stroke-width:1;stroke-dasharray:none" />
        </g>
        <g
           fill="none"
           font-family="'Noto Sans'"
           font-size="42.3333px"
           font-style="normal"
           font-weight="400"
           stroke="#000000"
           stroke-linecap="round"
           stroke-linejoin="bevel"
           stroke-opacity="1"
           stroke-width="7"
           transform="translate(1485,1050)"
           id="g31"
           style="fill:#000000;fill-rule:evenodd;stroke:none;stroke-width:1;stroke-dasharray:none">
          <path
             d="m -262.61,-206.468 c 0,2.209 -1.791,4 -4,4 -2.209,0 -4,-1.791 -4,-4 0,-2.209 1.791,-4 4,-4 2.209,0 4,1.791 4,4"
             fill-rule="evenodd"
             vector-effect="none"
             id="path31"
             style="fill:#000000;stroke:none;stroke-width:1;stroke-dasharray:none" />
        </g>
        <g
           fill="none"
           font-family="'Noto Sans'"
           font-size="42.3333px"
           font-style="normal"
           font-weight="400"
           stroke="#000000"
           stroke-linecap="round"
           stroke-linejoin="bevel"
           stroke-opacity="1"
           stroke-width="7"
           transform="translate(1485,1050)"
           id="g32"
           style="fill:#000000;fill-rule:evenodd;stroke:none;stroke-width:1;stroke-dasharray:none">
          <path
             d="m 247.93,-183.777 c 0,2.209 -1.791,4 -4,4 -2.209,0 -4,-1.791 -4,-4 0,-2.209 1.791,-4 4,-4 2.209,0 4,1.791 4,4"
             fill-rule="evenodd"
             vector-effect="none"
             id="path32"
             style="fill:#000000;stroke:none;stroke-width:1;stroke-dasharray:none" />
        </g>
        <g
           fill="none"
           font-family="'Noto Sans'"
           font-size="42.3333px"
           font-style="normal"
           font-weight="400"
           stroke="#000000"
           stroke-linecap="round"
           stroke-linejoin="bevel"
           stroke-opacity="1"
           stroke-width="7"
           transform="translate(1485,1050)"
           id="g33"
           style="fill:#000000;fill-rule:evenodd;stroke:none;stroke-width:1;stroke-dasharray:none">
          <path
             d="m 265.43,-214.088 c 0,2.209 -1.791,4 -4,4 -2.209,0 -4,-1.791 -4,-4 0,-2.209 1.791,-4 4,-4 2.209,0 4,1.791 4,4"
             fill-rule="evenodd"
             vector-effect="none"
             id="path33"
             style="fill:#000000;stroke:none;stroke-width:1;stroke-dasharray:none" />
        </g>
      </g>
    </g>
  </g>
</svg>
