<?xml version="1.0" standalone="no"?>
 <!DOCTYPE svg PUBLIC "-//W3C//DTD SVG 1.1//EN" 
 "http://www.w3.org/Graphics/SVG/1.1/DTD/svg11.dtd"> 
<svg
  xmlns:svg="http://www.w3.org/2000/svg"
  xmlns="http://www.w3.org/2000/svg"
  xmlns:xlink="http://www.w3.org/1999/xlink"
  version="1.1"
  width="297.0022mm" height="210.0072mm" viewBox="0.0000 0.0000 297.0022 210.0072">
<title>SVG Image created as pomodoro_timer-PTH-drl_map.svg date 2025/09/08 17:29:45 </title>
  <desc>Image generated by PCBNEW </desc>
<g style="fill:#000000; fill-opacity:1.0000;stroke:#000000; stroke-opacity:1.0000;
stroke-linecap:round; stroke-linejoin:round;"
 transform="translate(0 0) scale(1 1)">
</g>
<g style="fill:none; 
stroke:#000000; stroke-width:0.5913; stroke-opacity:1; 
stroke-linecap:round; stroke-linejoin:round;">
<path d="M109.3404 22.5263 A10.8830 10.8830 0.0 0 0 107.0306 44.0967" />
<path d="M156.7423 6.0508 A0.6800 0.6800 0.0 0 0 156.0663 5.2957" />
<path d="M139.7237 5.2956 A0.7552 0.7552 0.0 0 0 138.9685 6.0508" />
<path d="M187.8491 22.5083
L156.7680 22.5083
" />
<path d="M156.7680 22.5083
L156.7421 6.0508
" />
<path d="M107.0320 44.0894 A49.2653 49.2653 0.0 1 0 189.0804 44.2417" />
<path d="M156.0663 5.2957
L139.7237 5.2957
" />
<path d="M138.9685 6.0508
L138.9943 22.5476
" />
<path d="M138.9943 22.5476
L109.3404 22.5263
" />
<path d="M189.0804 44.2418 A10.8978 10.8978 0.0 0 0 187.8491 22.5083" />
</g>
<g style="fill:none; 
stroke:#000000; stroke-width:0.1478; stroke-opacity:1; 
stroke-linecap:round; stroke-linejoin:round;">
<path d="M108.3485 31.7405
L109.8268 33.2188
" />
<path d="M109.8268 31.7405
L108.3485 33.2188
" />
<path d="M110.9355 36.2214
L112.4139 37.6997
" />
<path d="M112.4139 36.2214
L110.9355 37.6997
" />
<path d="M183.8226 35.0949
L185.3009 36.5733
" />
<path d="M185.3009 35.0949
L183.8226 36.5733
" />
<path d="M186.4096 30.6140
L187.8879 32.0923
" />
<path d="M187.8879 30.6140
L186.4096 32.0923
" />
</g>
<g style="fill:none; 
stroke:#000000; stroke-width:0.2070; stroke-opacity:1; 
stroke-linecap:round; stroke-linejoin:round;">
<circle cx="142.3069" cy="74.8358" r="1.0348" /> 
<circle cx="146.0619" cy="74.8358" r="1.0348" /> 
<circle cx="149.8168" cy="74.8358" r="1.0348" /> 
<circle cx="153.5717" cy="74.8358" r="1.0348" /> 
<circle cx="168.9581" cy="67.7635" r="1.0348" /> 
<circle cx="168.9581" cy="71.5184" r="1.0348" /> 
<circle cx="168.9581" cy="75.2733" r="1.0348" /> 
</g>
<g style="fill:none; 
stroke:#000000; stroke-width:0.2000; stroke-opacity:1; 
stroke-linecap:round; stroke-linejoin:round;">
<text x="99.8883" y="124.2043"
textLength="14.8667" font-size="2.6667" lengthAdjust="spacingAndGlyphs"
text-anchor="start" opacity="0" stroke-opacity="0">Drill Map:</text>
<g class="stroked-text"><desc>Drill Map:</desc>
<path d="M100.4961 124.1192
L100.4961 122.1192
" />
<path d="M100.4961 122.1192
L100.9723 122.1192
" />
<path d="M100.9723 122.1192
L101.2580 122.2144
" />
<path d="M101.2580 122.2144
L101.4484 122.4049
" />
<path d="M101.4484 122.4049
L101.5437 122.5953
" />
<path d="M101.5437 122.5953
L101.6389 122.9763
" />
<path d="M101.6389 122.9763
L101.6389 123.2620
" />
<path d="M101.6389 123.2620
L101.5437 123.6430
" />
<path d="M101.5437 123.6430
L101.4484 123.8334
" />
<path d="M101.4484 123.8334
L101.2580 124.0239
" />
<path d="M101.2580 124.0239
L100.9723 124.1192
" />
<path d="M100.9723 124.1192
L100.4961 124.1192
" />
<path d="M102.4961 124.1192
L102.4961 122.7858
" />
<path d="M102.4961 123.1668
L102.5913 122.9763
" />
<path d="M102.5913 122.9763
L102.6865 122.8811
" />
<path d="M102.6865 122.8811
L102.8770 122.7858
" />
<path d="M102.8770 122.7858
L103.0675 122.7858
" />
<path d="M103.7342 124.1192
L103.7342 122.7858
" />
<path d="M103.7342 122.1192
L103.6389 122.2144
" />
<path d="M103.6389 122.2144
L103.7342 122.3096
" />
<path d="M103.7342 122.3096
L103.8294 122.2144
" />
<path d="M103.8294 122.2144
L103.7342 122.1192
" />
<path d="M103.7342 122.1192
L103.7342 122.3096
" />
<path d="M104.9722 124.1192
L104.7818 124.0239
" />
<path d="M104.7818 124.0239
L104.6865 123.8334
" />
<path d="M104.6865 123.8334
L104.6865 122.1192
" />
<path d="M106.0199 124.1192
L105.8294 124.0239
" />
<path d="M105.8294 124.0239
L105.7342 123.8334
" />
<path d="M105.7342 123.8334
L105.7342 122.1192
" />
<path d="M108.3056 124.1192
L108.3056 122.1192
" />
<path d="M108.3056 122.1192
L108.9722 123.5477
" />
<path d="M108.9722 123.5477
L109.6389 122.1192
" />
<path d="M109.6389 122.1192
L109.6389 124.1192
" />
<path d="M111.4484 124.1192
L111.4484 123.0715
" />
<path d="M111.4484 123.0715
L111.3532 122.8811
" />
<path d="M111.3532 122.8811
L111.1627 122.7858
" />
<path d="M111.1627 122.7858
L110.7818 122.7858
" />
<path d="M110.7818 122.7858
L110.5913 122.8811
" />
<path d="M111.4484 124.0239
L111.2580 124.1192
" />
<path d="M111.2580 124.1192
L110.7818 124.1192
" />
<path d="M110.7818 124.1192
L110.5913 124.0239
" />
<path d="M110.5913 124.0239
L110.4961 123.8334
" />
<path d="M110.4961 123.8334
L110.4961 123.6430
" />
<path d="M110.4961 123.6430
L110.5913 123.4525
" />
<path d="M110.5913 123.4525
L110.7818 123.3573
" />
<path d="M110.7818 123.3573
L111.2580 123.3573
" />
<path d="M111.2580 123.3573
L111.4484 123.2620
" />
<path d="M112.4008 122.7858
L112.4008 124.7858
" />
<path d="M112.4008 122.8811
L112.5913 122.7858
" />
<path d="M112.5913 122.7858
L112.9722 122.7858
" />
<path d="M112.9722 122.7858
L113.1627 122.8811
" />
<path d="M113.1627 122.8811
L113.2580 122.9763
" />
<path d="M113.2580 122.9763
L113.3532 123.1668
" />
<path d="M113.3532 123.1668
L113.3532 123.7382
" />
<path d="M113.3532 123.7382
L113.2580 123.9287
" />
<path d="M113.2580 123.9287
L113.1627 124.0239
" />
<path d="M113.1627 124.0239
L112.9722 124.1192
" />
<path d="M112.9722 124.1192
L112.5913 124.1192
" />
<path d="M112.5913 124.1192
L112.4008 124.0239
" />
<path d="M114.2103 123.9287
L114.3056 124.0239
" />
<path d="M114.3056 124.0239
L114.2103 124.1192
" />
<path d="M114.2103 124.1192
L114.1151 124.0239
" />
<path d="M114.1151 124.0239
L114.2103 123.9287
" />
<path d="M114.2103 123.9287
L114.2103 124.1192
" />
<path d="M114.2103 122.8811
L114.3056 122.9763
" />
<path d="M114.3056 122.9763
L114.2103 123.0715
" />
<path d="M114.2103 123.0715
L114.1151 122.9763
" />
<path d="M114.1151 122.9763
L114.2103 122.8811
" />
<path d="M114.2103 122.8811
L114.2103 123.0715
" />
</g></g>
<g style="fill:none; 
stroke:#000000; stroke-width:0.1478; stroke-opacity:1; 
stroke-linecap:round; stroke-linejoin:round;">
<path d="M96.4100 126.6652
L97.8883 128.1435
" />
<path d="M97.8883 126.6652
L96.4100 128.1435
" />
</g>
<g style="fill:none; 
stroke:#000000; stroke-width:0.2000; stroke-opacity:1; 
stroke-linecap:round; stroke-linejoin:round;">
<text x="99.8883" y="128.4043"
textLength="46.8667" font-size="2.6667" lengthAdjust="spacingAndGlyphs"
text-anchor="start" opacity="0" stroke-opacity="0">1.000mm / 0.0394" (4 holes)</text>
<g class="stroked-text"><desc>1.000mm / 0.0394" (4 holes)</desc>
<path d="M101.5437 128.3192
L100.4008 128.3192
" />
<path d="M100.9723 128.3192
L100.9723 126.3192
" />
<path d="M100.9723 126.3192
L100.7818 126.6049
" />
<path d="M100.7818 126.6049
L100.5913 126.7953
" />
<path d="M100.5913 126.7953
L100.4008 126.8906
" />
<path d="M102.4008 128.1287
L102.4961 128.2239
" />
<path d="M102.4961 128.2239
L102.4008 128.3192
" />
<path d="M102.4008 128.3192
L102.3056 128.2239
" />
<path d="M102.3056 128.2239
L102.4008 128.1287
" />
<path d="M102.4008 128.1287
L102.4008 128.3192
" />
<path d="M103.7342 126.3192
L103.9246 126.3192
" />
<path d="M103.9246 126.3192
L104.1151 126.4144
" />
<path d="M104.1151 126.4144
L104.2103 126.5096
" />
<path d="M104.2103 126.5096
L104.3056 126.7001
" />
<path d="M104.3056 126.7001
L104.4008 127.0811
" />
<path d="M104.4008 127.0811
L104.4008 127.5573
" />
<path d="M104.4008 127.5573
L104.3056 127.9382
" />
<path d="M104.3056 127.9382
L104.2103 128.1287
" />
<path d="M104.2103 128.1287
L104.1151 128.2239
" />
<path d="M104.1151 128.2239
L103.9246 128.3192
" />
<path d="M103.9246 128.3192
L103.7342 128.3192
" />
<path d="M103.7342 128.3192
L103.5437 128.2239
" />
<path d="M103.5437 128.2239
L103.4484 128.1287
" />
<path d="M103.4484 128.1287
L103.3532 127.9382
" />
<path d="M103.3532 127.9382
L103.2580 127.5573
" />
<path d="M103.2580 127.5573
L103.2580 127.0811
" />
<path d="M103.2580 127.0811
L103.3532 126.7001
" />
<path d="M103.3532 126.7001
L103.4484 126.5096
" />
<path d="M103.4484 126.5096
L103.5437 126.4144
" />
<path d="M103.5437 126.4144
L103.7342 126.3192
" />
<path d="M105.6389 126.3192
L105.8294 126.3192
" />
<path d="M105.8294 126.3192
L106.0199 126.4144
" />
<path d="M106.0199 126.4144
L106.1151 126.5096
" />
<path d="M106.1151 126.5096
L106.2103 126.7001
" />
<path d="M106.2103 126.7001
L106.3056 127.0811
" />
<path d="M106.3056 127.0811
L106.3056 127.5573
" />
<path d="M106.3056 127.5573
L106.2103 127.9382
" />
<path d="M106.2103 127.9382
L106.1151 128.1287
" />
<path d="M106.1151 128.1287
L106.0199 128.2239
" />
<path d="M106.0199 128.2239
L105.8294 128.3192
" />
<path d="M105.8294 128.3192
L105.6389 128.3192
" />
<path d="M105.6389 128.3192
L105.4484 128.2239
" />
<path d="M105.4484 128.2239
L105.3532 128.1287
" />
<path d="M105.3532 128.1287
L105.2580 127.9382
" />
<path d="M105.2580 127.9382
L105.1627 127.5573
" />
<path d="M105.1627 127.5573
L105.1627 127.0811
" />
<path d="M105.1627 127.0811
L105.2580 126.7001
" />
<path d="M105.2580 126.7001
L105.3532 126.5096
" />
<path d="M105.3532 126.5096
L105.4484 126.4144
" />
<path d="M105.4484 126.4144
L105.6389 126.3192
" />
<path d="M107.5437 126.3192
L107.7342 126.3192
" />
<path d="M107.7342 126.3192
L107.9246 126.4144
" />
<path d="M107.9246 126.4144
L108.0199 126.5096
" />
<path d="M108.0199 126.5096
L108.1151 126.7001
" />
<path d="M108.1151 126.7001
L108.2103 127.0811
" />
<path d="M108.2103 127.0811
L108.2103 127.5573
" />
<path d="M108.2103 127.5573
L108.1151 127.9382
" />
<path d="M108.1151 127.9382
L108.0199 128.1287
" />
<path d="M108.0199 128.1287
L107.9246 128.2239
" />
<path d="M107.9246 128.2239
L107.7342 128.3192
" />
<path d="M107.7342 128.3192
L107.5437 128.3192
" />
<path d="M107.5437 128.3192
L107.3532 128.2239
" />
<path d="M107.3532 128.2239
L107.2580 128.1287
" />
<path d="M107.2580 128.1287
L107.1627 127.9382
" />
<path d="M107.1627 127.9382
L107.0675 127.5573
" />
<path d="M107.0675 127.5573
L107.0675 127.0811
" />
<path d="M107.0675 127.0811
L107.1627 126.7001
" />
<path d="M107.1627 126.7001
L107.2580 126.5096
" />
<path d="M107.2580 126.5096
L107.3532 126.4144
" />
<path d="M107.3532 126.4144
L107.5437 126.3192
" />
<path d="M109.0675 128.3192
L109.0675 126.9858
" />
<path d="M109.0675 127.1763
L109.1627 127.0811
" />
<path d="M109.1627 127.0811
L109.3532 126.9858
" />
<path d="M109.3532 126.9858
L109.6389 126.9858
" />
<path d="M109.6389 126.9858
L109.8294 127.0811
" />
<path d="M109.8294 127.0811
L109.9246 127.2715
" />
<path d="M109.9246 127.2715
L109.9246 128.3192
" />
<path d="M109.9246 127.2715
L110.0199 127.0811
" />
<path d="M110.0199 127.0811
L110.2103 126.9858
" />
<path d="M110.2103 126.9858
L110.4961 126.9858
" />
<path d="M110.4961 126.9858
L110.6865 127.0811
" />
<path d="M110.6865 127.0811
L110.7818 127.2715
" />
<path d="M110.7818 127.2715
L110.7818 128.3192
" />
<path d="M111.7342 128.3192
L111.7342 126.9858
" />
<path d="M111.7342 127.1763
L111.8294 127.0811
" />
<path d="M111.8294 127.0811
L112.0199 126.9858
" />
<path d="M112.0199 126.9858
L112.3056 126.9858
" />
<path d="M112.3056 126.9858
L112.4961 127.0811
" />
<path d="M112.4961 127.0811
L112.5913 127.2715
" />
<path d="M112.5913 127.2715
L112.5913 128.3192
" />
<path d="M112.5913 127.2715
L112.6865 127.0811
" />
<path d="M112.6865 127.0811
L112.8770 126.9858
" />
<path d="M112.8770 126.9858
L113.1627 126.9858
" />
<path d="M113.1627 126.9858
L113.3532 127.0811
" />
<path d="M113.3532 127.0811
L113.4484 127.2715
" />
<path d="M113.4484 127.2715
L113.4484 128.3192
" />
<path d="M117.3532 126.2239
L115.6389 128.7953
" />
<path d="M119.9246 126.3192
L120.1151 126.3192
" />
<path d="M120.1151 126.3192
L120.3056 126.4144
" />
<path d="M120.3056 126.4144
L120.4008 126.5096
" />
<path d="M120.4008 126.5096
L120.4961 126.7001
" />
<path d="M120.4961 126.7001
L120.5913 127.0811
" />
<path d="M120.5913 127.0811
L120.5913 127.5573
" />
<path d="M120.5913 127.5573
L120.4961 127.9382
" />
<path d="M120.4961 127.9382
L120.4008 128.1287
" />
<path d="M120.4008 128.1287
L120.3056 128.2239
" />
<path d="M120.3056 128.2239
L120.1151 128.3192
" />
<path d="M120.1151 128.3192
L119.9246 128.3192
" />
<path d="M119.9246 128.3192
L119.7341 128.2239
" />
<path d="M119.7341 128.2239
L119.6389 128.1287
" />
<path d="M119.6389 128.1287
L119.5437 127.9382
" />
<path d="M119.5437 127.9382
L119.4484 127.5573
" />
<path d="M119.4484 127.5573
L119.4484 127.0811
" />
<path d="M119.4484 127.0811
L119.5437 126.7001
" />
<path d="M119.5437 126.7001
L119.6389 126.5096
" />
<path d="M119.6389 126.5096
L119.7341 126.4144
" />
<path d="M119.7341 126.4144
L119.9246 126.3192
" />
<path d="M121.4484 128.1287
L121.5437 128.2239
" />
<path d="M121.5437 128.2239
L121.4484 128.3192
" />
<path d="M121.4484 128.3192
L121.3532 128.2239
" />
<path d="M121.3532 128.2239
L121.4484 128.1287
" />
<path d="M121.4484 128.1287
L121.4484 128.3192
" />
<path d="M122.7818 126.3192
L122.9722 126.3192
" />
<path d="M122.9722 126.3192
L123.1627 126.4144
" />
<path d="M123.1627 126.4144
L123.2580 126.5096
" />
<path d="M123.2580 126.5096
L123.3532 126.7001
" />
<path d="M123.3532 126.7001
L123.4484 127.0811
" />
<path d="M123.4484 127.0811
L123.4484 127.5573
" />
<path d="M123.4484 127.5573
L123.3532 127.9382
" />
<path d="M123.3532 127.9382
L123.2580 128.1287
" />
<path d="M123.2580 128.1287
L123.1627 128.2239
" />
<path d="M123.1627 128.2239
L122.9722 128.3192
" />
<path d="M122.9722 128.3192
L122.7818 128.3192
" />
<path d="M122.7818 128.3192
L122.5913 128.2239
" />
<path d="M122.5913 128.2239
L122.4961 128.1287
" />
<path d="M122.4961 128.1287
L122.4008 127.9382
" />
<path d="M122.4008 127.9382
L122.3056 127.5573
" />
<path d="M122.3056 127.5573
L122.3056 127.0811
" />
<path d="M122.3056 127.0811
L122.4008 126.7001
" />
<path d="M122.4008 126.7001
L122.4961 126.5096
" />
<path d="M122.4961 126.5096
L122.5913 126.4144
" />
<path d="M122.5913 126.4144
L122.7818 126.3192
" />
<path d="M124.1151 126.3192
L125.3532 126.3192
" />
<path d="M125.3532 126.3192
L124.6865 127.0811
" />
<path d="M124.6865 127.0811
L124.9722 127.0811
" />
<path d="M124.9722 127.0811
L125.1627 127.1763
" />
<path d="M125.1627 127.1763
L125.2580 127.2715
" />
<path d="M125.2580 127.2715
L125.3532 127.4620
" />
<path d="M125.3532 127.4620
L125.3532 127.9382
" />
<path d="M125.3532 127.9382
L125.2580 128.1287
" />
<path d="M125.2580 128.1287
L125.1627 128.2239
" />
<path d="M125.1627 128.2239
L124.9722 128.3192
" />
<path d="M124.9722 128.3192
L124.4008 128.3192
" />
<path d="M124.4008 128.3192
L124.2103 128.2239
" />
<path d="M124.2103 128.2239
L124.1151 128.1287
" />
<path d="M126.3056 128.3192
L126.6865 128.3192
" />
<path d="M126.6865 128.3192
L126.8770 128.2239
" />
<path d="M126.8770 128.2239
L126.9722 128.1287
" />
<path d="M126.9722 128.1287
L127.1627 127.8430
" />
<path d="M127.1627 127.8430
L127.2580 127.4620
" />
<path d="M127.2580 127.4620
L127.2580 126.7001
" />
<path d="M127.2580 126.7001
L127.1627 126.5096
" />
<path d="M127.1627 126.5096
L127.0675 126.4144
" />
<path d="M127.0675 126.4144
L126.8770 126.3192
" />
<path d="M126.8770 126.3192
L126.4961 126.3192
" />
<path d="M126.4961 126.3192
L126.3056 126.4144
" />
<path d="M126.3056 126.4144
L126.2103 126.5096
" />
<path d="M126.2103 126.5096
L126.1151 126.7001
" />
<path d="M126.1151 126.7001
L126.1151 127.1763
" />
<path d="M126.1151 127.1763
L126.2103 127.3668
" />
<path d="M126.2103 127.3668
L126.3056 127.4620
" />
<path d="M126.3056 127.4620
L126.4961 127.5573
" />
<path d="M126.4961 127.5573
L126.8770 127.5573
" />
<path d="M126.8770 127.5573
L127.0675 127.4620
" />
<path d="M127.0675 127.4620
L127.1627 127.3668
" />
<path d="M127.1627 127.3668
L127.2580 127.1763
" />
<path d="M128.9722 126.9858
L128.9722 128.3192
" />
<path d="M128.4961 126.2239
L128.0199 127.6525
" />
<path d="M128.0199 127.6525
L129.2580 127.6525
" />
<path d="M129.9246 126.3192
L129.9246 126.7001
" />
<path d="M130.6865 126.3192
L130.6865 126.7001
" />
<path d="M133.6389 129.0811
L133.5437 128.9858
" />
<path d="M133.5437 128.9858
L133.3532 128.7001
" />
<path d="M133.3532 128.7001
L133.2580 128.5096
" />
<path d="M133.2580 128.5096
L133.1627 128.2239
" />
<path d="M133.1627 128.2239
L133.0675 127.7477
" />
<path d="M133.0675 127.7477
L133.0675 127.3668
" />
<path d="M133.0675 127.3668
L133.1627 126.8906
" />
<path d="M133.1627 126.8906
L133.2580 126.6049
" />
<path d="M133.2580 126.6049
L133.3532 126.4144
" />
<path d="M133.3532 126.4144
L133.5437 126.1287
" />
<path d="M133.5437 126.1287
L133.6389 126.0334
" />
<path d="M135.2580 126.9858
L135.2580 128.3192
" />
<path d="M134.7818 126.2239
L134.3056 127.6525
" />
<path d="M134.3056 127.6525
L135.5437 127.6525
" />
<path d="M137.8294 128.3192
L137.8294 126.3192
" />
<path d="M138.6865 128.3192
L138.6865 127.2715
" />
<path d="M138.6865 127.2715
L138.5913 127.0811
" />
<path d="M138.5913 127.0811
L138.4008 126.9858
" />
<path d="M138.4008 126.9858
L138.1151 126.9858
" />
<path d="M138.1151 126.9858
L137.9246 127.0811
" />
<path d="M137.9246 127.0811
L137.8294 127.1763
" />
<path d="M139.9246 128.3192
L139.7341 128.2239
" />
<path d="M139.7341 128.2239
L139.6389 128.1287
" />
<path d="M139.6389 128.1287
L139.5437 127.9382
" />
<path d="M139.5437 127.9382
L139.5437 127.3668
" />
<path d="M139.5437 127.3668
L139.6389 127.1763
" />
<path d="M139.6389 127.1763
L139.7341 127.0811
" />
<path d="M139.7341 127.0811
L139.9246 126.9858
" />
<path d="M139.9246 126.9858
L140.2103 126.9858
" />
<path d="M140.2103 126.9858
L140.4008 127.0811
" />
<path d="M140.4008 127.0811
L140.4961 127.1763
" />
<path d="M140.4961 127.1763
L140.5913 127.3668
" />
<path d="M140.5913 127.3668
L140.5913 127.9382
" />
<path d="M140.5913 127.9382
L140.4961 128.1287
" />
<path d="M140.4961 128.1287
L140.4008 128.2239
" />
<path d="M140.4008 128.2239
L140.2103 128.3192
" />
<path d="M140.2103 128.3192
L139.9246 128.3192
" />
<path d="M141.7341 128.3192
L141.5437 128.2239
" />
<path d="M141.5437 128.2239
L141.4484 128.0334
" />
<path d="M141.4484 128.0334
L141.4484 126.3192
" />
<path d="M143.2580 128.2239
L143.0675 128.3192
" />
<path d="M143.0675 128.3192
L142.6865 128.3192
" />
<path d="M142.6865 128.3192
L142.4961 128.2239
" />
<path d="M142.4961 128.2239
L142.4008 128.0334
" />
<path d="M142.4008 128.0334
L142.4008 127.2715
" />
<path d="M142.4008 127.2715
L142.4961 127.0811
" />
<path d="M142.4961 127.0811
L142.6865 126.9858
" />
<path d="M142.6865 126.9858
L143.0675 126.9858
" />
<path d="M143.0675 126.9858
L143.2580 127.0811
" />
<path d="M143.2580 127.0811
L143.3532 127.2715
" />
<path d="M143.3532 127.2715
L143.3532 127.4620
" />
<path d="M143.3532 127.4620
L142.4008 127.6525
" />
<path d="M144.1151 128.2239
L144.3056 128.3192
" />
<path d="M144.3056 128.3192
L144.6865 128.3192
" />
<path d="M144.6865 128.3192
L144.8770 128.2239
" />
<path d="M144.8770 128.2239
L144.9722 128.0334
" />
<path d="M144.9722 128.0334
L144.9722 127.9382
" />
<path d="M144.9722 127.9382
L144.8770 127.7477
" />
<path d="M144.8770 127.7477
L144.6865 127.6525
" />
<path d="M144.6865 127.6525
L144.4008 127.6525
" />
<path d="M144.4008 127.6525
L144.2103 127.5573
" />
<path d="M144.2103 127.5573
L144.1151 127.3668
" />
<path d="M144.1151 127.3668
L144.1151 127.2715
" />
<path d="M144.1151 127.2715
L144.2103 127.0811
" />
<path d="M144.2103 127.0811
L144.4008 126.9858
" />
<path d="M144.4008 126.9858
L144.6865 126.9858
" />
<path d="M144.6865 126.9858
L144.8770 127.0811
" />
<path d="M145.6389 129.0811
L145.7341 128.9858
" />
<path d="M145.7341 128.9858
L145.9246 128.7001
" />
<path d="M145.9246 128.7001
L146.0199 128.5096
" />
<path d="M146.0199 128.5096
L146.1151 128.2239
" />
<path d="M146.1151 128.2239
L146.2103 127.7477
" />
<path d="M146.2103 127.7477
L146.2103 127.3668
" />
<path d="M146.2103 127.3668
L146.1151 126.8906
" />
<path d="M146.1151 126.8906
L146.0199 126.6049
" />
<path d="M146.0199 126.6049
L145.9246 126.4144
" />
<path d="M145.9246 126.4144
L145.7341 126.1287
" />
<path d="M145.7341 126.1287
L145.6389 126.0334
" />
</g></g>
<g style="fill:none; 
stroke:#000000; stroke-width:0.2000; stroke-opacity:1; 
stroke-linecap:round; stroke-linejoin:round;">
<circle cx="96.8883" cy="130.0826" r="1.0000" /> 
</g>
<g style="fill:none; 
stroke:#000000; stroke-width:0.2000; stroke-opacity:1; 
stroke-linecap:round; stroke-linejoin:round;">
<text x="99.8883" y="131.0826"
textLength="46.8667" font-size="2.6667" lengthAdjust="spacingAndGlyphs"
text-anchor="start" opacity="0" stroke-opacity="0">1.400mm / 0.0551" (7 holes)</text>
<g class="stroked-text"><desc>1.400mm / 0.0551" (7 holes)</desc>
<path d="M101.5437 130.9975
L100.4008 130.9975
" />
<path d="M100.9723 130.9975
L100.9723 128.9975
" />
<path d="M100.9723 128.9975
L100.7818 129.2832
" />
<path d="M100.7818 129.2832
L100.5913 129.4737
" />
<path d="M100.5913 129.4737
L100.4008 129.5689
" />
<path d="M102.4008 130.8070
L102.4961 130.9022
" />
<path d="M102.4961 130.9022
L102.4008 130.9975
" />
<path d="M102.4008 130.9975
L102.3056 130.9022
" />
<path d="M102.3056 130.9022
L102.4008 130.8070
" />
<path d="M102.4008 130.8070
L102.4008 130.9975
" />
<path d="M104.2103 129.6641
L104.2103 130.9975
" />
<path d="M103.7342 128.9022
L103.2580 130.3308
" />
<path d="M103.2580 130.3308
L104.4961 130.3308
" />
<path d="M105.6389 128.9975
L105.8294 128.9975
" />
<path d="M105.8294 128.9975
L106.0199 129.0927
" />
<path d="M106.0199 129.0927
L106.1151 129.1879
" />
<path d="M106.1151 129.1879
L106.2103 129.3784
" />
<path d="M106.2103 129.3784
L106.3056 129.7594
" />
<path d="M106.3056 129.7594
L106.3056 130.2356
" />
<path d="M106.3056 130.2356
L106.2103 130.6165
" />
<path d="M106.2103 130.6165
L106.1151 130.8070
" />
<path d="M106.1151 130.8070
L106.0199 130.9022
" />
<path d="M106.0199 130.9022
L105.8294 130.9975
" />
<path d="M105.8294 130.9975
L105.6389 130.9975
" />
<path d="M105.6389 130.9975
L105.4484 130.9022
" />
<path d="M105.4484 130.9022
L105.3532 130.8070
" />
<path d="M105.3532 130.8070
L105.2580 130.6165
" />
<path d="M105.2580 130.6165
L105.1627 130.2356
" />
<path d="M105.1627 130.2356
L105.1627 129.7594
" />
<path d="M105.1627 129.7594
L105.2580 129.3784
" />
<path d="M105.2580 129.3784
L105.3532 129.1879
" />
<path d="M105.3532 129.1879
L105.4484 129.0927
" />
<path d="M105.4484 129.0927
L105.6389 128.9975
" />
<path d="M107.5437 128.9975
L107.7342 128.9975
" />
<path d="M107.7342 128.9975
L107.9246 129.0927
" />
<path d="M107.9246 129.0927
L108.0199 129.1879
" />
<path d="M108.0199 129.1879
L108.1151 129.3784
" />
<path d="M108.1151 129.3784
L108.2103 129.7594
" />
<path d="M108.2103 129.7594
L108.2103 130.2356
" />
<path d="M108.2103 130.2356
L108.1151 130.6165
" />
<path d="M108.1151 130.6165
L108.0199 130.8070
" />
<path d="M108.0199 130.8070
L107.9246 130.9022
" />
<path d="M107.9246 130.9022
L107.7342 130.9975
" />
<path d="M107.7342 130.9975
L107.5437 130.9975
" />
<path d="M107.5437 130.9975
L107.3532 130.9022
" />
<path d="M107.3532 130.9022
L107.2580 130.8070
" />
<path d="M107.2580 130.8070
L107.1627 130.6165
" />
<path d="M107.1627 130.6165
L107.0675 130.2356
" />
<path d="M107.0675 130.2356
L107.0675 129.7594
" />
<path d="M107.0675 129.7594
L107.1627 129.3784
" />
<path d="M107.1627 129.3784
L107.2580 129.1879
" />
<path d="M107.2580 129.1879
L107.3532 129.0927
" />
<path d="M107.3532 129.0927
L107.5437 128.9975
" />
<path d="M109.0675 130.9975
L109.0675 129.6641
" />
<path d="M109.0675 129.8546
L109.1627 129.7594
" />
<path d="M109.1627 129.7594
L109.3532 129.6641
" />
<path d="M109.3532 129.6641
L109.6389 129.6641
" />
<path d="M109.6389 129.6641
L109.8294 129.7594
" />
<path d="M109.8294 129.7594
L109.9246 129.9499
" />
<path d="M109.9246 129.9499
L109.9246 130.9975
" />
<path d="M109.9246 129.9499
L110.0199 129.7594
" />
<path d="M110.0199 129.7594
L110.2103 129.6641
" />
<path d="M110.2103 129.6641
L110.4961 129.6641
" />
<path d="M110.4961 129.6641
L110.6865 129.7594
" />
<path d="M110.6865 129.7594
L110.7818 129.9499
" />
<path d="M110.7818 129.9499
L110.7818 130.9975
" />
<path d="M111.7342 130.9975
L111.7342 129.6641
" />
<path d="M111.7342 129.8546
L111.8294 129.7594
" />
<path d="M111.8294 129.7594
L112.0199 129.6641
" />
<path d="M112.0199 129.6641
L112.3056 129.6641
" />
<path d="M112.3056 129.6641
L112.4961 129.7594
" />
<path d="M112.4961 129.7594
L112.5913 129.9499
" />
<path d="M112.5913 129.9499
L112.5913 130.9975
" />
<path d="M112.5913 129.9499
L112.6865 129.7594
" />
<path d="M112.6865 129.7594
L112.8770 129.6641
" />
<path d="M112.8770 129.6641
L113.1627 129.6641
" />
<path d="M113.1627 129.6641
L113.3532 129.7594
" />
<path d="M113.3532 129.7594
L113.4484 129.9499
" />
<path d="M113.4484 129.9499
L113.4484 130.9975
" />
<path d="M117.3532 128.9022
L115.6389 131.4737
" />
<path d="M119.9246 128.9975
L120.1151 128.9975
" />
<path d="M120.1151 128.9975
L120.3056 129.0927
" />
<path d="M120.3056 129.0927
L120.4008 129.1879
" />
<path d="M120.4008 129.1879
L120.4961 129.3784
" />
<path d="M120.4961 129.3784
L120.5913 129.7594
" />
<path d="M120.5913 129.7594
L120.5913 130.2356
" />
<path d="M120.5913 130.2356
L120.4961 130.6165
" />
<path d="M120.4961 130.6165
L120.4008 130.8070
" />
<path d="M120.4008 130.8070
L120.3056 130.9022
" />
<path d="M120.3056 130.9022
L120.1151 130.9975
" />
<path d="M120.1151 130.9975
L119.9246 130.9975
" />
<path d="M119.9246 130.9975
L119.7341 130.9022
" />
<path d="M119.7341 130.9022
L119.6389 130.8070
" />
<path d="M119.6389 130.8070
L119.5437 130.6165
" />
<path d="M119.5437 130.6165
L119.4484 130.2356
" />
<path d="M119.4484 130.2356
L119.4484 129.7594
" />
<path d="M119.4484 129.7594
L119.5437 129.3784
" />
<path d="M119.5437 129.3784
L119.6389 129.1879
" />
<path d="M119.6389 129.1879
L119.7341 129.0927
" />
<path d="M119.7341 129.0927
L119.9246 128.9975
" />
<path d="M121.4484 130.8070
L121.5437 130.9022
" />
<path d="M121.5437 130.9022
L121.4484 130.9975
" />
<path d="M121.4484 130.9975
L121.3532 130.9022
" />
<path d="M121.3532 130.9022
L121.4484 130.8070
" />
<path d="M121.4484 130.8070
L121.4484 130.9975
" />
<path d="M122.7818 128.9975
L122.9722 128.9975
" />
<path d="M122.9722 128.9975
L123.1627 129.0927
" />
<path d="M123.1627 129.0927
L123.2580 129.1879
" />
<path d="M123.2580 129.1879
L123.3532 129.3784
" />
<path d="M123.3532 129.3784
L123.4484 129.7594
" />
<path d="M123.4484 129.7594
L123.4484 130.2356
" />
<path d="M123.4484 130.2356
L123.3532 130.6165
" />
<path d="M123.3532 130.6165
L123.2580 130.8070
" />
<path d="M123.2580 130.8070
L123.1627 130.9022
" />
<path d="M123.1627 130.9022
L122.9722 130.9975
" />
<path d="M122.9722 130.9975
L122.7818 130.9975
" />
<path d="M122.7818 130.9975
L122.5913 130.9022
" />
<path d="M122.5913 130.9022
L122.4961 130.8070
" />
<path d="M122.4961 130.8070
L122.4008 130.6165
" />
<path d="M122.4008 130.6165
L122.3056 130.2356
" />
<path d="M122.3056 130.2356
L122.3056 129.7594
" />
<path d="M122.3056 129.7594
L122.4008 129.3784
" />
<path d="M122.4008 129.3784
L122.4961 129.1879
" />
<path d="M122.4961 129.1879
L122.5913 129.0927
" />
<path d="M122.5913 129.0927
L122.7818 128.9975
" />
<path d="M125.2580 128.9975
L124.3056 128.9975
" />
<path d="M124.3056 128.9975
L124.2103 129.9499
" />
<path d="M124.2103 129.9499
L124.3056 129.8546
" />
<path d="M124.3056 129.8546
L124.4961 129.7594
" />
<path d="M124.4961 129.7594
L124.9722 129.7594
" />
<path d="M124.9722 129.7594
L125.1627 129.8546
" />
<path d="M125.1627 129.8546
L125.2580 129.9499
" />
<path d="M125.2580 129.9499
L125.3532 130.1403
" />
<path d="M125.3532 130.1403
L125.3532 130.6165
" />
<path d="M125.3532 130.6165
L125.2580 130.8070
" />
<path d="M125.2580 130.8070
L125.1627 130.9022
" />
<path d="M125.1627 130.9022
L124.9722 130.9975
" />
<path d="M124.9722 130.9975
L124.4961 130.9975
" />
<path d="M124.4961 130.9975
L124.3056 130.9022
" />
<path d="M124.3056 130.9022
L124.2103 130.8070
" />
<path d="M127.1627 128.9975
L126.2103 128.9975
" />
<path d="M126.2103 128.9975
L126.1151 129.9499
" />
<path d="M126.1151 129.9499
L126.2103 129.8546
" />
<path d="M126.2103 129.8546
L126.4008 129.7594
" />
<path d="M126.4008 129.7594
L126.8770 129.7594
" />
<path d="M126.8770 129.7594
L127.0675 129.8546
" />
<path d="M127.0675 129.8546
L127.1627 129.9499
" />
<path d="M127.1627 129.9499
L127.2580 130.1403
" />
<path d="M127.2580 130.1403
L127.2580 130.6165
" />
<path d="M127.2580 130.6165
L127.1627 130.8070
" />
<path d="M127.1627 130.8070
L127.0675 130.9022
" />
<path d="M127.0675 130.9022
L126.8770 130.9975
" />
<path d="M126.8770 130.9975
L126.4008 130.9975
" />
<path d="M126.4008 130.9975
L126.2103 130.9022
" />
<path d="M126.2103 130.9022
L126.1151 130.8070
" />
<path d="M129.1627 130.9975
L128.0199 130.9975
" />
<path d="M128.5913 130.9975
L128.5913 128.9975
" />
<path d="M128.5913 128.9975
L128.4008 129.2832
" />
<path d="M128.4008 129.2832
L128.2103 129.4737
" />
<path d="M128.2103 129.4737
L128.0199 129.5689
" />
<path d="M129.9246 128.9975
L129.9246 129.3784
" />
<path d="M130.6865 128.9975
L130.6865 129.3784
" />
<path d="M133.6389 131.7594
L133.5437 131.6641
" />
<path d="M133.5437 131.6641
L133.3532 131.3784
" />
<path d="M133.3532 131.3784
L133.2580 131.1879
" />
<path d="M133.2580 131.1879
L133.1627 130.9022
" />
<path d="M133.1627 130.9022
L133.0675 130.4260
" />
<path d="M133.0675 130.4260
L133.0675 130.0451
" />
<path d="M133.0675 130.0451
L133.1627 129.5689
" />
<path d="M133.1627 129.5689
L133.2580 129.2832
" />
<path d="M133.2580 129.2832
L133.3532 129.0927
" />
<path d="M133.3532 129.0927
L133.5437 128.8070
" />
<path d="M133.5437 128.8070
L133.6389 128.7118
" />
<path d="M134.2103 128.9975
L135.5437 128.9975
" />
<path d="M135.5437 128.9975
L134.6865 130.9975
" />
<path d="M137.8294 130.9975
L137.8294 128.9975
" />
<path d="M138.6865 130.9975
L138.6865 129.9499
" />
<path d="M138.6865 129.9499
L138.5913 129.7594
" />
<path d="M138.5913 129.7594
L138.4008 129.6641
" />
<path d="M138.4008 129.6641
L138.1151 129.6641
" />
<path d="M138.1151 129.6641
L137.9246 129.7594
" />
<path d="M137.9246 129.7594
L137.8294 129.8546
" />
<path d="M139.9246 130.9975
L139.7341 130.9022
" />
<path d="M139.7341 130.9022
L139.6389 130.8070
" />
<path d="M139.6389 130.8070
L139.5437 130.6165
" />
<path d="M139.5437 130.6165
L139.5437 130.0451
" />
<path d="M139.5437 130.0451
L139.6389 129.8546
" />
<path d="M139.6389 129.8546
L139.7341 129.7594
" />
<path d="M139.7341 129.7594
L139.9246 129.6641
" />
<path d="M139.9246 129.6641
L140.2103 129.6641
" />
<path d="M140.2103 129.6641
L140.4008 129.7594
" />
<path d="M140.4008 129.7594
L140.4961 129.8546
" />
<path d="M140.4961 129.8546
L140.5913 130.0451
" />
<path d="M140.5913 130.0451
L140.5913 130.6165
" />
<path d="M140.5913 130.6165
L140.4961 130.8070
" />
<path d="M140.4961 130.8070
L140.4008 130.9022
" />
<path d="M140.4008 130.9022
L140.2103 130.9975
" />
<path d="M140.2103 130.9975
L139.9246 130.9975
" />
<path d="M141.7341 130.9975
L141.5437 130.9022
" />
<path d="M141.5437 130.9022
L141.4484 130.7118
" />
<path d="M141.4484 130.7118
L141.4484 128.9975
" />
<path d="M143.2580 130.9022
L143.0675 130.9975
" />
<path d="M143.0675 130.9975
L142.6865 130.9975
" />
<path d="M142.6865 130.9975
L142.4961 130.9022
" />
<path d="M142.4961 130.9022
L142.4008 130.7118
" />
<path d="M142.4008 130.7118
L142.4008 129.9499
" />
<path d="M142.4008 129.9499
L142.4961 129.7594
" />
<path d="M142.4961 129.7594
L142.6865 129.6641
" />
<path d="M142.6865 129.6641
L143.0675 129.6641
" />
<path d="M143.0675 129.6641
L143.2580 129.7594
" />
<path d="M143.2580 129.7594
L143.3532 129.9499
" />
<path d="M143.3532 129.9499
L143.3532 130.1403
" />
<path d="M143.3532 130.1403
L142.4008 130.3308
" />
<path d="M144.1151 130.9022
L144.3056 130.9975
" />
<path d="M144.3056 130.9975
L144.6865 130.9975
" />
<path d="M144.6865 130.9975
L144.8770 130.9022
" />
<path d="M144.8770 130.9022
L144.9722 130.7118
" />
<path d="M144.9722 130.7118
L144.9722 130.6165
" />
<path d="M144.9722 130.6165
L144.8770 130.4260
" />
<path d="M144.8770 130.4260
L144.6865 130.3308
" />
<path d="M144.6865 130.3308
L144.4008 130.3308
" />
<path d="M144.4008 130.3308
L144.2103 130.2356
" />
<path d="M144.2103 130.2356
L144.1151 130.0451
" />
<path d="M144.1151 130.0451
L144.1151 129.9499
" />
<path d="M144.1151 129.9499
L144.2103 129.7594
" />
<path d="M144.2103 129.7594
L144.4008 129.6641
" />
<path d="M144.4008 129.6641
L144.6865 129.6641
" />
<path d="M144.6865 129.6641
L144.8770 129.7594
" />
<path d="M145.6389 131.7594
L145.7341 131.6641
" />
<path d="M145.7341 131.6641
L145.9246 131.3784
" />
<path d="M145.9246 131.3784
L146.0199 131.1879
" />
<path d="M146.0199 131.1879
L146.1151 130.9022
" />
<path d="M146.1151 130.9022
L146.2103 130.4260
" />
<path d="M146.2103 130.4260
L146.2103 130.0451
" />
<path d="M146.2103 130.0451
L146.1151 129.5689
" />
<path d="M146.1151 129.5689
L146.0199 129.2832
" />
<path d="M146.0199 129.2832
L145.9246 129.0927
" />
<path d="M145.9246 129.0927
L145.7341 128.8070
" />
<path d="M145.7341 128.8070
L145.6389 128.7118
" />
</g></g> 
</svg>
