<?xml version="1.0" standalone="no"?>
 <!DOCTYPE svg PUBLIC "-//W3C//DTD SVG 1.1//EN" 
 "http://www.w3.org/Graphics/SVG/1.1/DTD/svg11.dtd"> 
<svg
  xmlns:svg="http://www.w3.org/2000/svg"
  xmlns="http://www.w3.org/2000/svg"
  xmlns:xlink="http://www.w3.org/1999/xlink"
  version="1.1"
  width="297.0022mm" height="210.0072mm" viewBox="0.0000 0.0000 297.0022 210.0072">
<title>SVG Image created as pomodoro_timer-PTH-drl_map.svg date 2025/09/15 18:49:41 </title>
  <desc>Image generated by PCBNEW </desc>
<g style="fill:#000000; fill-opacity:1.0000;stroke:#000000; stroke-opacity:1.0000;
stroke-linecap:round; stroke-linejoin:round;"
 transform="translate(0 0) scale(1 1)">
</g>
<g style="fill:none; 
stroke:#000000; stroke-width:0.0712; stroke-opacity:1; 
stroke-linecap:round; stroke-linejoin:round;">
<path d="M140.4354 120.2563 A0.7125 0.7125 0.0 0 0 141.1479 120.9687" />
<path d="M142.0028 5.4167
L141.1479 6.2716
" />
<path d="M156.9635 120.9674 A0.7111 0.7111 0.0 0 0 157.6746 120.2563" />
<path d="M102.1158 22.2677
L131.6728 5.2030
" />
<path d="M189.2167 32.4930 A6.5836 6.5836 0.0 0 0 194.7120 21.4444" />
<path d="M108.5907 32.9867 A47.3447 47.3447 0.0 0 0 140.4355 104.1188" />
<path d="M141.1479 9.6200
L139.4381 9.6200
" />
<path d="M156.2511 5.4167
L142.0028 5.4167
" />
<path d="M157.1772 6.3429
L156.2511 5.4167
" />
<path d="M157.6746 104.1190
L157.6746 120.2563
" />
<path d="M194.7119 21.4444
L166.5811 5.2030
" />
<path d="M157.1772 9.6200
L157.1772 6.3429
" />
<path d="M166.5833 5.1912 A6.5956 6.5956 0.0 0 0 159.0705 9.6200" />
<path d="M141.1479 120.9687
L156.9635 120.9674
" />
<path d="M157.6746 104.1190 A47.3447 47.3447 0.0 0 0 189.2166 32.4930" />
<path d="M141.1479 6.2716
L141.1479 9.6200
" />
<path d="M159.0705 9.6200
L157.1772 9.6200
" />
<path d="M139.4381 9.6200 A6.5787 6.5787 0.0 0 0 131.6739 5.2078" />
<path d="M102.1158 22.2677 A6.5836 6.5836 0.0 0 0 108.5907 32.9867" />
<path d="M140.4355 104.1188
L140.4355 120.2563
" />
</g>
<g style="fill:none; 
stroke:#000000; stroke-width:0.1425; stroke-opacity:1; 
stroke-linecap:round; stroke-linejoin:round;">
<path d="M142.4018 6.5744
L143.5416 7.7143
" />
<path d="M143.5416 6.5744
L142.4018 7.7143
" />
<path d="M142.4018 7.1443
L143.5416 8.2842
" />
<path d="M143.5416 7.1443
L142.4018 8.2842
" />
<path d="M142.4018 11.9887
L143.5416 13.1286
" />
<path d="M143.5416 11.9887
L142.4018 13.1286
" />
<path d="M142.4018 12.5587
L143.5416 13.6985
" />
<path d="M143.5416 12.5587
L142.4018 13.6985
" />
<path d="M154.7123 6.5744
L155.8521 7.7143
" />
<path d="M155.8521 6.5744
L154.7123 7.7143
" />
<path d="M154.7123 7.1443
L155.8521 8.2842
" />
<path d="M155.8521 7.1443
L154.7123 8.2842
" />
<path d="M154.7123 11.9887
L155.8521 13.1286
" />
<path d="M155.8521 11.9887
L154.7123 13.1286
" />
<path d="M154.7123 12.5587
L155.8521 13.6985
" />
<path d="M155.8521 12.5587
L154.7123 13.6985
" />
</g>
<g style="fill:none; 
stroke:#000000; stroke-width:0.1995; stroke-opacity:1; 
stroke-linecap:round; stroke-linejoin:round;">
<circle cx="143.3792" cy="60.9422" r="0.9974" /> 
<circle cx="146.9983" cy="60.9422" r="0.9974" /> 
<circle cx="150.6173" cy="60.9422" r="0.9974" /> 
<circle cx="154.2364" cy="60.9422" r="0.9974" /> 
<circle cx="168.0031" cy="54.1259" r="0.9974" /> 
<circle cx="168.0031" cy="57.7449" r="0.9974" /> 
<circle cx="168.0031" cy="61.3640" r="0.9974" /> 
</g>
<g style="fill:none; 
stroke:#000000; stroke-width:0.2000; stroke-opacity:1; 
stroke-linecap:round; stroke-linejoin:round;">
<text x="102.4753" y="124.2043"
textLength="14.8667" font-size="2.6667" lengthAdjust="spacingAndGlyphs"
text-anchor="start" opacity="0" stroke-opacity="0">Drill Map:</text>
<g class="stroked-text"><desc>Drill Map:</desc>
<path d="M103.0831 124.1192
L103.0831 122.1192
" />
<path d="M103.0831 122.1192
L103.5593 122.1192
" />
<path d="M103.5593 122.1192
L103.8450 122.2144
" />
<path d="M103.8450 122.2144
L104.0355 122.4049
" />
<path d="M104.0355 122.4049
L104.1307 122.5953
" />
<path d="M104.1307 122.5953
L104.2260 122.9763
" />
<path d="M104.2260 122.9763
L104.2260 123.2620
" />
<path d="M104.2260 123.2620
L104.1307 123.6430
" />
<path d="M104.1307 123.6430
L104.0355 123.8334
" />
<path d="M104.0355 123.8334
L103.8450 124.0239
" />
<path d="M103.8450 124.0239
L103.5593 124.1192
" />
<path d="M103.5593 124.1192
L103.0831 124.1192
" />
<path d="M105.0831 124.1192
L105.0831 122.7858
" />
<path d="M105.0831 123.1668
L105.1783 122.9763
" />
<path d="M105.1783 122.9763
L105.2736 122.8811
" />
<path d="M105.2736 122.8811
L105.4640 122.7858
" />
<path d="M105.4640 122.7858
L105.6545 122.7858
" />
<path d="M106.3212 124.1192
L106.3212 122.7858
" />
<path d="M106.3212 122.1192
L106.2260 122.2144
" />
<path d="M106.2260 122.2144
L106.3212 122.3096
" />
<path d="M106.3212 122.3096
L106.4164 122.2144
" />
<path d="M106.4164 122.2144
L106.3212 122.1192
" />
<path d="M106.3212 122.1192
L106.3212 122.3096
" />
<path d="M107.5593 124.1192
L107.3688 124.0239
" />
<path d="M107.3688 124.0239
L107.2736 123.8334
" />
<path d="M107.2736 123.8334
L107.2736 122.1192
" />
<path d="M108.6069 124.1192
L108.4164 124.0239
" />
<path d="M108.4164 124.0239
L108.3212 123.8334
" />
<path d="M108.3212 123.8334
L108.3212 122.1192
" />
<path d="M110.8926 124.1192
L110.8926 122.1192
" />
<path d="M110.8926 122.1192
L111.5593 123.5477
" />
<path d="M111.5593 123.5477
L112.2260 122.1192
" />
<path d="M112.2260 122.1192
L112.2260 124.1192
" />
<path d="M114.0355 124.1192
L114.0355 123.0715
" />
<path d="M114.0355 123.0715
L113.9402 122.8811
" />
<path d="M113.9402 122.8811
L113.7498 122.7858
" />
<path d="M113.7498 122.7858
L113.3688 122.7858
" />
<path d="M113.3688 122.7858
L113.1783 122.8811
" />
<path d="M114.0355 124.0239
L113.8450 124.1192
" />
<path d="M113.8450 124.1192
L113.3688 124.1192
" />
<path d="M113.3688 124.1192
L113.1783 124.0239
" />
<path d="M113.1783 124.0239
L113.0831 123.8334
" />
<path d="M113.0831 123.8334
L113.0831 123.6430
" />
<path d="M113.0831 123.6430
L113.1783 123.4525
" />
<path d="M113.1783 123.4525
L113.3688 123.3573
" />
<path d="M113.3688 123.3573
L113.8450 123.3573
" />
<path d="M113.8450 123.3573
L114.0355 123.2620
" />
<path d="M114.9879 122.7858
L114.9879 124.7858
" />
<path d="M114.9879 122.8811
L115.1783 122.7858
" />
<path d="M115.1783 122.7858
L115.5593 122.7858
" />
<path d="M115.5593 122.7858
L115.7498 122.8811
" />
<path d="M115.7498 122.8811
L115.8450 122.9763
" />
<path d="M115.8450 122.9763
L115.9402 123.1668
" />
<path d="M115.9402 123.1668
L115.9402 123.7382
" />
<path d="M115.9402 123.7382
L115.8450 123.9287
" />
<path d="M115.8450 123.9287
L115.7498 124.0239
" />
<path d="M115.7498 124.0239
L115.5593 124.1192
" />
<path d="M115.5593 124.1192
L115.1783 124.1192
" />
<path d="M115.1783 124.1192
L114.9879 124.0239
" />
<path d="M116.7974 123.9287
L116.8926 124.0239
" />
<path d="M116.8926 124.0239
L116.7974 124.1192
" />
<path d="M116.7974 124.1192
L116.7021 124.0239
" />
<path d="M116.7021 124.0239
L116.7974 123.9287
" />
<path d="M116.7974 123.9287
L116.7974 124.1192
" />
<path d="M116.7974 122.8811
L116.8926 122.9763
" />
<path d="M116.8926 122.9763
L116.7974 123.0715
" />
<path d="M116.7974 123.0715
L116.7021 122.9763
" />
<path d="M116.7021 122.9763
L116.7974 122.8811
" />
<path d="M116.7974 122.8811
L116.7974 123.0715
" />
</g></g>
<g style="fill:none; 
stroke:#000000; stroke-width:0.1425; stroke-opacity:1; 
stroke-linecap:round; stroke-linejoin:round;">
<path d="M99.3355 126.8344
L100.4753 127.9743
" />
<path d="M100.4753 126.8344
L99.3355 127.9743
" />
</g>
<g style="fill:none; 
stroke:#000000; stroke-width:0.2000; stroke-opacity:1; 
stroke-linecap:round; stroke-linejoin:round;">
<text x="102.4753" y="128.4043"
textLength="46.8667" font-size="2.6667" lengthAdjust="spacingAndGlyphs"
text-anchor="start" opacity="0" stroke-opacity="0">0.800mm / 0.0315" (8 holes)</text>
<g class="stroked-text"><desc>0.800mm / 0.0315" (8 holes)</desc>
<path d="M103.4640 126.3192
L103.6545 126.3192
" />
<path d="M103.6545 126.3192
L103.8450 126.4144
" />
<path d="M103.8450 126.4144
L103.9402 126.5096
" />
<path d="M103.9402 126.5096
L104.0355 126.7001
" />
<path d="M104.0355 126.7001
L104.1307 127.0811
" />
<path d="M104.1307 127.0811
L104.1307 127.5573
" />
<path d="M104.1307 127.5573
L104.0355 127.9382
" />
<path d="M104.0355 127.9382
L103.9402 128.1287
" />
<path d="M103.9402 128.1287
L103.8450 128.2239
" />
<path d="M103.8450 128.2239
L103.6545 128.3192
" />
<path d="M103.6545 128.3192
L103.4640 128.3192
" />
<path d="M103.4640 128.3192
L103.2736 128.2239
" />
<path d="M103.2736 128.2239
L103.1783 128.1287
" />
<path d="M103.1783 128.1287
L103.0831 127.9382
" />
<path d="M103.0831 127.9382
L102.9879 127.5573
" />
<path d="M102.9879 127.5573
L102.9879 127.0811
" />
<path d="M102.9879 127.0811
L103.0831 126.7001
" />
<path d="M103.0831 126.7001
L103.1783 126.5096
" />
<path d="M103.1783 126.5096
L103.2736 126.4144
" />
<path d="M103.2736 126.4144
L103.4640 126.3192
" />
<path d="M104.9879 128.1287
L105.0831 128.2239
" />
<path d="M105.0831 128.2239
L104.9879 128.3192
" />
<path d="M104.9879 128.3192
L104.8926 128.2239
" />
<path d="M104.8926 128.2239
L104.9879 128.1287
" />
<path d="M104.9879 128.1287
L104.9879 128.3192
" />
<path d="M106.2260 127.1763
L106.0355 127.0811
" />
<path d="M106.0355 127.0811
L105.9402 126.9858
" />
<path d="M105.9402 126.9858
L105.8450 126.7953
" />
<path d="M105.8450 126.7953
L105.8450 126.7001
" />
<path d="M105.8450 126.7001
L105.9402 126.5096
" />
<path d="M105.9402 126.5096
L106.0355 126.4144
" />
<path d="M106.0355 126.4144
L106.2260 126.3192
" />
<path d="M106.2260 126.3192
L106.6069 126.3192
" />
<path d="M106.6069 126.3192
L106.7974 126.4144
" />
<path d="M106.7974 126.4144
L106.8926 126.5096
" />
<path d="M106.8926 126.5096
L106.9879 126.7001
" />
<path d="M106.9879 126.7001
L106.9879 126.7953
" />
<path d="M106.9879 126.7953
L106.8926 126.9858
" />
<path d="M106.8926 126.9858
L106.7974 127.0811
" />
<path d="M106.7974 127.0811
L106.6069 127.1763
" />
<path d="M106.6069 127.1763
L106.2260 127.1763
" />
<path d="M106.2260 127.1763
L106.0355 127.2715
" />
<path d="M106.0355 127.2715
L105.9402 127.3668
" />
<path d="M105.9402 127.3668
L105.8450 127.5573
" />
<path d="M105.8450 127.5573
L105.8450 127.9382
" />
<path d="M105.8450 127.9382
L105.9402 128.1287
" />
<path d="M105.9402 128.1287
L106.0355 128.2239
" />
<path d="M106.0355 128.2239
L106.2260 128.3192
" />
<path d="M106.2260 128.3192
L106.6069 128.3192
" />
<path d="M106.6069 128.3192
L106.7974 128.2239
" />
<path d="M106.7974 128.2239
L106.8926 128.1287
" />
<path d="M106.8926 128.1287
L106.9879 127.9382
" />
<path d="M106.9879 127.9382
L106.9879 127.5573
" />
<path d="M106.9879 127.5573
L106.8926 127.3668
" />
<path d="M106.8926 127.3668
L106.7974 127.2715
" />
<path d="M106.7974 127.2715
L106.6069 127.1763
" />
<path d="M108.2260 126.3192
L108.4164 126.3192
" />
<path d="M108.4164 126.3192
L108.6069 126.4144
" />
<path d="M108.6069 126.4144
L108.7021 126.5096
" />
<path d="M108.7021 126.5096
L108.7974 126.7001
" />
<path d="M108.7974 126.7001
L108.8926 127.0811
" />
<path d="M108.8926 127.0811
L108.8926 127.5573
" />
<path d="M108.8926 127.5573
L108.7974 127.9382
" />
<path d="M108.7974 127.9382
L108.7021 128.1287
" />
<path d="M108.7021 128.1287
L108.6069 128.2239
" />
<path d="M108.6069 128.2239
L108.4164 128.3192
" />
<path d="M108.4164 128.3192
L108.2260 128.3192
" />
<path d="M108.2260 128.3192
L108.0355 128.2239
" />
<path d="M108.0355 128.2239
L107.9402 128.1287
" />
<path d="M107.9402 128.1287
L107.8450 127.9382
" />
<path d="M107.8450 127.9382
L107.7498 127.5573
" />
<path d="M107.7498 127.5573
L107.7498 127.0811
" />
<path d="M107.7498 127.0811
L107.8450 126.7001
" />
<path d="M107.8450 126.7001
L107.9402 126.5096
" />
<path d="M107.9402 126.5096
L108.0355 126.4144
" />
<path d="M108.0355 126.4144
L108.2260 126.3192
" />
<path d="M110.1307 126.3192
L110.3212 126.3192
" />
<path d="M110.3212 126.3192
L110.5117 126.4144
" />
<path d="M110.5117 126.4144
L110.6069 126.5096
" />
<path d="M110.6069 126.5096
L110.7021 126.7001
" />
<path d="M110.7021 126.7001
L110.7974 127.0811
" />
<path d="M110.7974 127.0811
L110.7974 127.5573
" />
<path d="M110.7974 127.5573
L110.7021 127.9382
" />
<path d="M110.7021 127.9382
L110.6069 128.1287
" />
<path d="M110.6069 128.1287
L110.5117 128.2239
" />
<path d="M110.5117 128.2239
L110.3212 128.3192
" />
<path d="M110.3212 128.3192
L110.1307 128.3192
" />
<path d="M110.1307 128.3192
L109.9402 128.2239
" />
<path d="M109.9402 128.2239
L109.8450 128.1287
" />
<path d="M109.8450 128.1287
L109.7498 127.9382
" />
<path d="M109.7498 127.9382
L109.6545 127.5573
" />
<path d="M109.6545 127.5573
L109.6545 127.0811
" />
<path d="M109.6545 127.0811
L109.7498 126.7001
" />
<path d="M109.7498 126.7001
L109.8450 126.5096
" />
<path d="M109.8450 126.5096
L109.9402 126.4144
" />
<path d="M109.9402 126.4144
L110.1307 126.3192
" />
<path d="M111.6545 128.3192
L111.6545 126.9858
" />
<path d="M111.6545 127.1763
L111.7498 127.0811
" />
<path d="M111.7498 127.0811
L111.9402 126.9858
" />
<path d="M111.9402 126.9858
L112.2260 126.9858
" />
<path d="M112.2260 126.9858
L112.4164 127.0811
" />
<path d="M112.4164 127.0811
L112.5117 127.2715
" />
<path d="M112.5117 127.2715
L112.5117 128.3192
" />
<path d="M112.5117 127.2715
L112.6069 127.0811
" />
<path d="M112.6069 127.0811
L112.7974 126.9858
" />
<path d="M112.7974 126.9858
L113.0831 126.9858
" />
<path d="M113.0831 126.9858
L113.2736 127.0811
" />
<path d="M113.2736 127.0811
L113.3688 127.2715
" />
<path d="M113.3688 127.2715
L113.3688 128.3192
" />
<path d="M114.3212 128.3192
L114.3212 126.9858
" />
<path d="M114.3212 127.1763
L114.4164 127.0811
" />
<path d="M114.4164 127.0811
L114.6069 126.9858
" />
<path d="M114.6069 126.9858
L114.8926 126.9858
" />
<path d="M114.8926 126.9858
L115.0831 127.0811
" />
<path d="M115.0831 127.0811
L115.1783 127.2715
" />
<path d="M115.1783 127.2715
L115.1783 128.3192
" />
<path d="M115.1783 127.2715
L115.2736 127.0811
" />
<path d="M115.2736 127.0811
L115.4640 126.9858
" />
<path d="M115.4640 126.9858
L115.7498 126.9858
" />
<path d="M115.7498 126.9858
L115.9402 127.0811
" />
<path d="M115.9402 127.0811
L116.0355 127.2715
" />
<path d="M116.0355 127.2715
L116.0355 128.3192
" />
<path d="M119.9402 126.2239
L118.2260 128.7953
" />
<path d="M122.5117 126.3192
L122.7021 126.3192
" />
<path d="M122.7021 126.3192
L122.8926 126.4144
" />
<path d="M122.8926 126.4144
L122.9879 126.5096
" />
<path d="M122.9879 126.5096
L123.0831 126.7001
" />
<path d="M123.0831 126.7001
L123.1783 127.0811
" />
<path d="M123.1783 127.0811
L123.1783 127.5573
" />
<path d="M123.1783 127.5573
L123.0831 127.9382
" />
<path d="M123.0831 127.9382
L122.9879 128.1287
" />
<path d="M122.9879 128.1287
L122.8926 128.2239
" />
<path d="M122.8926 128.2239
L122.7021 128.3192
" />
<path d="M122.7021 128.3192
L122.5117 128.3192
" />
<path d="M122.5117 128.3192
L122.3212 128.2239
" />
<path d="M122.3212 128.2239
L122.2260 128.1287
" />
<path d="M122.2260 128.1287
L122.1307 127.9382
" />
<path d="M122.1307 127.9382
L122.0355 127.5573
" />
<path d="M122.0355 127.5573
L122.0355 127.0811
" />
<path d="M122.0355 127.0811
L122.1307 126.7001
" />
<path d="M122.1307 126.7001
L122.2260 126.5096
" />
<path d="M122.2260 126.5096
L122.3212 126.4144
" />
<path d="M122.3212 126.4144
L122.5117 126.3192
" />
<path d="M124.0355 128.1287
L124.1307 128.2239
" />
<path d="M124.1307 128.2239
L124.0355 128.3192
" />
<path d="M124.0355 128.3192
L123.9402 128.2239
" />
<path d="M123.9402 128.2239
L124.0355 128.1287
" />
<path d="M124.0355 128.1287
L124.0355 128.3192
" />
<path d="M125.3688 126.3192
L125.5593 126.3192
" />
<path d="M125.5593 126.3192
L125.7498 126.4144
" />
<path d="M125.7498 126.4144
L125.8450 126.5096
" />
<path d="M125.8450 126.5096
L125.9402 126.7001
" />
<path d="M125.9402 126.7001
L126.0355 127.0811
" />
<path d="M126.0355 127.0811
L126.0355 127.5573
" />
<path d="M126.0355 127.5573
L125.9402 127.9382
" />
<path d="M125.9402 127.9382
L125.8450 128.1287
" />
<path d="M125.8450 128.1287
L125.7498 128.2239
" />
<path d="M125.7498 128.2239
L125.5593 128.3192
" />
<path d="M125.5593 128.3192
L125.3688 128.3192
" />
<path d="M125.3688 128.3192
L125.1783 128.2239
" />
<path d="M125.1783 128.2239
L125.0831 128.1287
" />
<path d="M125.0831 128.1287
L124.9879 127.9382
" />
<path d="M124.9879 127.9382
L124.8926 127.5573
" />
<path d="M124.8926 127.5573
L124.8926 127.0811
" />
<path d="M124.8926 127.0811
L124.9879 126.7001
" />
<path d="M124.9879 126.7001
L125.0831 126.5096
" />
<path d="M125.0831 126.5096
L125.1783 126.4144
" />
<path d="M125.1783 126.4144
L125.3688 126.3192
" />
<path d="M126.7021 126.3192
L127.9402 126.3192
" />
<path d="M127.9402 126.3192
L127.2736 127.0811
" />
<path d="M127.2736 127.0811
L127.5593 127.0811
" />
<path d="M127.5593 127.0811
L127.7498 127.1763
" />
<path d="M127.7498 127.1763
L127.8450 127.2715
" />
<path d="M127.8450 127.2715
L127.9402 127.4620
" />
<path d="M127.9402 127.4620
L127.9402 127.9382
" />
<path d="M127.9402 127.9382
L127.8450 128.1287
" />
<path d="M127.8450 128.1287
L127.7498 128.2239
" />
<path d="M127.7498 128.2239
L127.5593 128.3192
" />
<path d="M127.5593 128.3192
L126.9879 128.3192
" />
<path d="M126.9879 128.3192
L126.7974 128.2239
" />
<path d="M126.7974 128.2239
L126.7021 128.1287
" />
<path d="M129.8450 128.3192
L128.7021 128.3192
" />
<path d="M129.2736 128.3192
L129.2736 126.3192
" />
<path d="M129.2736 126.3192
L129.0831 126.6049
" />
<path d="M129.0831 126.6049
L128.8926 126.7953
" />
<path d="M128.8926 126.7953
L128.7021 126.8906
" />
<path d="M131.6545 126.3192
L130.7021 126.3192
" />
<path d="M130.7021 126.3192
L130.6069 127.2715
" />
<path d="M130.6069 127.2715
L130.7021 127.1763
" />
<path d="M130.7021 127.1763
L130.8926 127.0811
" />
<path d="M130.8926 127.0811
L131.3688 127.0811
" />
<path d="M131.3688 127.0811
L131.5593 127.1763
" />
<path d="M131.5593 127.1763
L131.6545 127.2715
" />
<path d="M131.6545 127.2715
L131.7498 127.4620
" />
<path d="M131.7498 127.4620
L131.7498 127.9382
" />
<path d="M131.7498 127.9382
L131.6545 128.1287
" />
<path d="M131.6545 128.1287
L131.5593 128.2239
" />
<path d="M131.5593 128.2239
L131.3688 128.3192
" />
<path d="M131.3688 128.3192
L130.8926 128.3192
" />
<path d="M130.8926 128.3192
L130.7021 128.2239
" />
<path d="M130.7021 128.2239
L130.6069 128.1287
" />
<path d="M132.5117 126.3192
L132.5117 126.7001
" />
<path d="M133.2736 126.3192
L133.2736 126.7001
" />
<path d="M136.2260 129.0811
L136.1307 128.9858
" />
<path d="M136.1307 128.9858
L135.9402 128.7001
" />
<path d="M135.9402 128.7001
L135.8450 128.5096
" />
<path d="M135.8450 128.5096
L135.7498 128.2239
" />
<path d="M135.7498 128.2239
L135.6545 127.7477
" />
<path d="M135.6545 127.7477
L135.6545 127.3668
" />
<path d="M135.6545 127.3668
L135.7498 126.8906
" />
<path d="M135.7498 126.8906
L135.8450 126.6049
" />
<path d="M135.8450 126.6049
L135.9402 126.4144
" />
<path d="M135.9402 126.4144
L136.1307 126.1287
" />
<path d="M136.1307 126.1287
L136.2260 126.0334
" />
<path d="M137.2736 127.1763
L137.0831 127.0811
" />
<path d="M137.0831 127.0811
L136.9879 126.9858
" />
<path d="M136.9879 126.9858
L136.8926 126.7953
" />
<path d="M136.8926 126.7953
L136.8926 126.7001
" />
<path d="M136.8926 126.7001
L136.9879 126.5096
" />
<path d="M136.9879 126.5096
L137.0831 126.4144
" />
<path d="M137.0831 126.4144
L137.2736 126.3192
" />
<path d="M137.2736 126.3192
L137.6545 126.3192
" />
<path d="M137.6545 126.3192
L137.8450 126.4144
" />
<path d="M137.8450 126.4144
L137.9402 126.5096
" />
<path d="M137.9402 126.5096
L138.0355 126.7001
" />
<path d="M138.0355 126.7001
L138.0355 126.7953
" />
<path d="M138.0355 126.7953
L137.9402 126.9858
" />
<path d="M137.9402 126.9858
L137.8450 127.0811
" />
<path d="M137.8450 127.0811
L137.6545 127.1763
" />
<path d="M137.6545 127.1763
L137.2736 127.1763
" />
<path d="M137.2736 127.1763
L137.0831 127.2715
" />
<path d="M137.0831 127.2715
L136.9879 127.3668
" />
<path d="M136.9879 127.3668
L136.8926 127.5573
" />
<path d="M136.8926 127.5573
L136.8926 127.9382
" />
<path d="M136.8926 127.9382
L136.9879 128.1287
" />
<path d="M136.9879 128.1287
L137.0831 128.2239
" />
<path d="M137.0831 128.2239
L137.2736 128.3192
" />
<path d="M137.2736 128.3192
L137.6545 128.3192
" />
<path d="M137.6545 128.3192
L137.8450 128.2239
" />
<path d="M137.8450 128.2239
L137.9402 128.1287
" />
<path d="M137.9402 128.1287
L138.0355 127.9382
" />
<path d="M138.0355 127.9382
L138.0355 127.5573
" />
<path d="M138.0355 127.5573
L137.9402 127.3668
" />
<path d="M137.9402 127.3668
L137.8450 127.2715
" />
<path d="M137.8450 127.2715
L137.6545 127.1763
" />
<path d="M140.4164 128.3192
L140.4164 126.3192
" />
<path d="M141.2736 128.3192
L141.2736 127.2715
" />
<path d="M141.2736 127.2715
L141.1783 127.0811
" />
<path d="M141.1783 127.0811
L140.9879 126.9858
" />
<path d="M140.9879 126.9858
L140.7021 126.9858
" />
<path d="M140.7021 126.9858
L140.5117 127.0811
" />
<path d="M140.5117 127.0811
L140.4164 127.1763
" />
<path d="M142.5117 128.3192
L142.3212 128.2239
" />
<path d="M142.3212 128.2239
L142.2260 128.1287
" />
<path d="M142.2260 128.1287
L142.1307 127.9382
" />
<path d="M142.1307 127.9382
L142.1307 127.3668
" />
<path d="M142.1307 127.3668
L142.2260 127.1763
" />
<path d="M142.2260 127.1763
L142.3212 127.0811
" />
<path d="M142.3212 127.0811
L142.5117 126.9858
" />
<path d="M142.5117 126.9858
L142.7974 126.9858
" />
<path d="M142.7974 126.9858
L142.9879 127.0811
" />
<path d="M142.9879 127.0811
L143.0831 127.1763
" />
<path d="M143.0831 127.1763
L143.1783 127.3668
" />
<path d="M143.1783 127.3668
L143.1783 127.9382
" />
<path d="M143.1783 127.9382
L143.0831 128.1287
" />
<path d="M143.0831 128.1287
L142.9879 128.2239
" />
<path d="M142.9879 128.2239
L142.7974 128.3192
" />
<path d="M142.7974 128.3192
L142.5117 128.3192
" />
<path d="M144.3212 128.3192
L144.1307 128.2239
" />
<path d="M144.1307 128.2239
L144.0355 128.0334
" />
<path d="M144.0355 128.0334
L144.0355 126.3192
" />
<path d="M145.8450 128.2239
L145.6545 128.3192
" />
<path d="M145.6545 128.3192
L145.2736 128.3192
" />
<path d="M145.2736 128.3192
L145.0831 128.2239
" />
<path d="M145.0831 128.2239
L144.9879 128.0334
" />
<path d="M144.9879 128.0334
L144.9879 127.2715
" />
<path d="M144.9879 127.2715
L145.0831 127.0811
" />
<path d="M145.0831 127.0811
L145.2736 126.9858
" />
<path d="M145.2736 126.9858
L145.6545 126.9858
" />
<path d="M145.6545 126.9858
L145.8450 127.0811
" />
<path d="M145.8450 127.0811
L145.9402 127.2715
" />
<path d="M145.9402 127.2715
L145.9402 127.4620
" />
<path d="M145.9402 127.4620
L144.9879 127.6525
" />
<path d="M146.7021 128.2239
L146.8926 128.3192
" />
<path d="M146.8926 128.3192
L147.2736 128.3192
" />
<path d="M147.2736 128.3192
L147.4641 128.2239
" />
<path d="M147.4641 128.2239
L147.5593 128.0334
" />
<path d="M147.5593 128.0334
L147.5593 127.9382
" />
<path d="M147.5593 127.9382
L147.4641 127.7477
" />
<path d="M147.4641 127.7477
L147.2736 127.6525
" />
<path d="M147.2736 127.6525
L146.9879 127.6525
" />
<path d="M146.9879 127.6525
L146.7974 127.5573
" />
<path d="M146.7974 127.5573
L146.7021 127.3668
" />
<path d="M146.7021 127.3668
L146.7021 127.2715
" />
<path d="M146.7021 127.2715
L146.7974 127.0811
" />
<path d="M146.7974 127.0811
L146.9879 126.9858
" />
<path d="M146.9879 126.9858
L147.2736 126.9858
" />
<path d="M147.2736 126.9858
L147.4641 127.0811
" />
<path d="M148.2260 129.0811
L148.3212 128.9858
" />
<path d="M148.3212 128.9858
L148.5117 128.7001
" />
<path d="M148.5117 128.7001
L148.6069 128.5096
" />
<path d="M148.6069 128.5096
L148.7021 128.2239
" />
<path d="M148.7021 128.2239
L148.7974 127.7477
" />
<path d="M148.7974 127.7477
L148.7974 127.3668
" />
<path d="M148.7974 127.3668
L148.7021 126.8906
" />
<path d="M148.7021 126.8906
L148.6069 126.6049
" />
<path d="M148.6069 126.6049
L148.5117 126.4144
" />
<path d="M148.5117 126.4144
L148.3212 126.1287
" />
<path d="M148.3212 126.1287
L148.2260 126.0334
" />
</g></g>
<g style="fill:none; 
stroke:#000000; stroke-width:0.1995; stroke-opacity:1; 
stroke-linecap:round; stroke-linejoin:round;">
<circle cx="99.4779" cy="130.0443" r="0.9974" /> 
</g>
<g style="fill:none; 
stroke:#000000; stroke-width:0.2000; stroke-opacity:1; 
stroke-linecap:round; stroke-linejoin:round;">
<text x="102.4753" y="131.0443"
textLength="46.8667" font-size="2.6667" lengthAdjust="spacingAndGlyphs"
text-anchor="start" opacity="0" stroke-opacity="0">1.400mm / 0.0551" (7 holes)</text>
<g class="stroked-text"><desc>1.400mm / 0.0551" (7 holes)</desc>
<path d="M104.1307 130.9592
L102.9879 130.9592
" />
<path d="M103.5593 130.9592
L103.5593 128.9592
" />
<path d="M103.5593 128.9592
L103.3688 129.2449
" />
<path d="M103.3688 129.2449
L103.1783 129.4353
" />
<path d="M103.1783 129.4353
L102.9879 129.5306
" />
<path d="M104.9879 130.7687
L105.0831 130.8639
" />
<path d="M105.0831 130.8639
L104.9879 130.9592
" />
<path d="M104.9879 130.9592
L104.8926 130.8639
" />
<path d="M104.8926 130.8639
L104.9879 130.7687
" />
<path d="M104.9879 130.7687
L104.9879 130.9592
" />
<path d="M106.7974 129.6258
L106.7974 130.9592
" />
<path d="M106.3212 128.8639
L105.8450 130.2925
" />
<path d="M105.8450 130.2925
L107.0831 130.2925
" />
<path d="M108.2260 128.9592
L108.4164 128.9592
" />
<path d="M108.4164 128.9592
L108.6069 129.0544
" />
<path d="M108.6069 129.0544
L108.7021 129.1496
" />
<path d="M108.7021 129.1496
L108.7974 129.3401
" />
<path d="M108.7974 129.3401
L108.8926 129.7211
" />
<path d="M108.8926 129.7211
L108.8926 130.1973
" />
<path d="M108.8926 130.1973
L108.7974 130.5782
" />
<path d="M108.7974 130.5782
L108.7021 130.7687
" />
<path d="M108.7021 130.7687
L108.6069 130.8639
" />
<path d="M108.6069 130.8639
L108.4164 130.9592
" />
<path d="M108.4164 130.9592
L108.2260 130.9592
" />
<path d="M108.2260 130.9592
L108.0355 130.8639
" />
<path d="M108.0355 130.8639
L107.9402 130.7687
" />
<path d="M107.9402 130.7687
L107.8450 130.5782
" />
<path d="M107.8450 130.5782
L107.7498 130.1973
" />
<path d="M107.7498 130.1973
L107.7498 129.7211
" />
<path d="M107.7498 129.7211
L107.8450 129.3401
" />
<path d="M107.8450 129.3401
L107.9402 129.1496
" />
<path d="M107.9402 129.1496
L108.0355 129.0544
" />
<path d="M108.0355 129.0544
L108.2260 128.9592
" />
<path d="M110.1307 128.9592
L110.3212 128.9592
" />
<path d="M110.3212 128.9592
L110.5117 129.0544
" />
<path d="M110.5117 129.0544
L110.6069 129.1496
" />
<path d="M110.6069 129.1496
L110.7021 129.3401
" />
<path d="M110.7021 129.3401
L110.7974 129.7211
" />
<path d="M110.7974 129.7211
L110.7974 130.1973
" />
<path d="M110.7974 130.1973
L110.7021 130.5782
" />
<path d="M110.7021 130.5782
L110.6069 130.7687
" />
<path d="M110.6069 130.7687
L110.5117 130.8639
" />
<path d="M110.5117 130.8639
L110.3212 130.9592
" />
<path d="M110.3212 130.9592
L110.1307 130.9592
" />
<path d="M110.1307 130.9592
L109.9402 130.8639
" />
<path d="M109.9402 130.8639
L109.8450 130.7687
" />
<path d="M109.8450 130.7687
L109.7498 130.5782
" />
<path d="M109.7498 130.5782
L109.6545 130.1973
" />
<path d="M109.6545 130.1973
L109.6545 129.7211
" />
<path d="M109.6545 129.7211
L109.7498 129.3401
" />
<path d="M109.7498 129.3401
L109.8450 129.1496
" />
<path d="M109.8450 129.1496
L109.9402 129.0544
" />
<path d="M109.9402 129.0544
L110.1307 128.9592
" />
<path d="M111.6545 130.9592
L111.6545 129.6258
" />
<path d="M111.6545 129.8163
L111.7498 129.7211
" />
<path d="M111.7498 129.7211
L111.9402 129.6258
" />
<path d="M111.9402 129.6258
L112.2260 129.6258
" />
<path d="M112.2260 129.6258
L112.4164 129.7211
" />
<path d="M112.4164 129.7211
L112.5117 129.9115
" />
<path d="M112.5117 129.9115
L112.5117 130.9592
" />
<path d="M112.5117 129.9115
L112.6069 129.7211
" />
<path d="M112.6069 129.7211
L112.7974 129.6258
" />
<path d="M112.7974 129.6258
L113.0831 129.6258
" />
<path d="M113.0831 129.6258
L113.2736 129.7211
" />
<path d="M113.2736 129.7211
L113.3688 129.9115
" />
<path d="M113.3688 129.9115
L113.3688 130.9592
" />
<path d="M114.3212 130.9592
L114.3212 129.6258
" />
<path d="M114.3212 129.8163
L114.4164 129.7211
" />
<path d="M114.4164 129.7211
L114.6069 129.6258
" />
<path d="M114.6069 129.6258
L114.8926 129.6258
" />
<path d="M114.8926 129.6258
L115.0831 129.7211
" />
<path d="M115.0831 129.7211
L115.1783 129.9115
" />
<path d="M115.1783 129.9115
L115.1783 130.9592
" />
<path d="M115.1783 129.9115
L115.2736 129.7211
" />
<path d="M115.2736 129.7211
L115.4640 129.6258
" />
<path d="M115.4640 129.6258
L115.7498 129.6258
" />
<path d="M115.7498 129.6258
L115.9402 129.7211
" />
<path d="M115.9402 129.7211
L116.0355 129.9115
" />
<path d="M116.0355 129.9115
L116.0355 130.9592
" />
<path d="M119.9402 128.8639
L118.2260 131.4353
" />
<path d="M122.5117 128.9592
L122.7021 128.9592
" />
<path d="M122.7021 128.9592
L122.8926 129.0544
" />
<path d="M122.8926 129.0544
L122.9879 129.1496
" />
<path d="M122.9879 129.1496
L123.0831 129.3401
" />
<path d="M123.0831 129.3401
L123.1783 129.7211
" />
<path d="M123.1783 129.7211
L123.1783 130.1973
" />
<path d="M123.1783 130.1973
L123.0831 130.5782
" />
<path d="M123.0831 130.5782
L122.9879 130.7687
" />
<path d="M122.9879 130.7687
L122.8926 130.8639
" />
<path d="M122.8926 130.8639
L122.7021 130.9592
" />
<path d="M122.7021 130.9592
L122.5117 130.9592
" />
<path d="M122.5117 130.9592
L122.3212 130.8639
" />
<path d="M122.3212 130.8639
L122.2260 130.7687
" />
<path d="M122.2260 130.7687
L122.1307 130.5782
" />
<path d="M122.1307 130.5782
L122.0355 130.1973
" />
<path d="M122.0355 130.1973
L122.0355 129.7211
" />
<path d="M122.0355 129.7211
L122.1307 129.3401
" />
<path d="M122.1307 129.3401
L122.2260 129.1496
" />
<path d="M122.2260 129.1496
L122.3212 129.0544
" />
<path d="M122.3212 129.0544
L122.5117 128.9592
" />
<path d="M124.0355 130.7687
L124.1307 130.8639
" />
<path d="M124.1307 130.8639
L124.0355 130.9592
" />
<path d="M124.0355 130.9592
L123.9402 130.8639
" />
<path d="M123.9402 130.8639
L124.0355 130.7687
" />
<path d="M124.0355 130.7687
L124.0355 130.9592
" />
<path d="M125.3688 128.9592
L125.5593 128.9592
" />
<path d="M125.5593 128.9592
L125.7498 129.0544
" />
<path d="M125.7498 129.0544
L125.8450 129.1496
" />
<path d="M125.8450 129.1496
L125.9402 129.3401
" />
<path d="M125.9402 129.3401
L126.0355 129.7211
" />
<path d="M126.0355 129.7211
L126.0355 130.1973
" />
<path d="M126.0355 130.1973
L125.9402 130.5782
" />
<path d="M125.9402 130.5782
L125.8450 130.7687
" />
<path d="M125.8450 130.7687
L125.7498 130.8639
" />
<path d="M125.7498 130.8639
L125.5593 130.9592
" />
<path d="M125.5593 130.9592
L125.3688 130.9592
" />
<path d="M125.3688 130.9592
L125.1783 130.8639
" />
<path d="M125.1783 130.8639
L125.0831 130.7687
" />
<path d="M125.0831 130.7687
L124.9879 130.5782
" />
<path d="M124.9879 130.5782
L124.8926 130.1973
" />
<path d="M124.8926 130.1973
L124.8926 129.7211
" />
<path d="M124.8926 129.7211
L124.9879 129.3401
" />
<path d="M124.9879 129.3401
L125.0831 129.1496
" />
<path d="M125.0831 129.1496
L125.1783 129.0544
" />
<path d="M125.1783 129.0544
L125.3688 128.9592
" />
<path d="M127.8450 128.9592
L126.8926 128.9592
" />
<path d="M126.8926 128.9592
L126.7974 129.9115
" />
<path d="M126.7974 129.9115
L126.8926 129.8163
" />
<path d="M126.8926 129.8163
L127.0831 129.7211
" />
<path d="M127.0831 129.7211
L127.5593 129.7211
" />
<path d="M127.5593 129.7211
L127.7498 129.8163
" />
<path d="M127.7498 129.8163
L127.8450 129.9115
" />
<path d="M127.8450 129.9115
L127.9402 130.1020
" />
<path d="M127.9402 130.1020
L127.9402 130.5782
" />
<path d="M127.9402 130.5782
L127.8450 130.7687
" />
<path d="M127.8450 130.7687
L127.7498 130.8639
" />
<path d="M127.7498 130.8639
L127.5593 130.9592
" />
<path d="M127.5593 130.9592
L127.0831 130.9592
" />
<path d="M127.0831 130.9592
L126.8926 130.8639
" />
<path d="M126.8926 130.8639
L126.7974 130.7687
" />
<path d="M129.7498 128.9592
L128.7974 128.9592
" />
<path d="M128.7974 128.9592
L128.7021 129.9115
" />
<path d="M128.7021 129.9115
L128.7974 129.8163
" />
<path d="M128.7974 129.8163
L128.9879 129.7211
" />
<path d="M128.9879 129.7211
L129.4641 129.7211
" />
<path d="M129.4641 129.7211
L129.6545 129.8163
" />
<path d="M129.6545 129.8163
L129.7498 129.9115
" />
<path d="M129.7498 129.9115
L129.8450 130.1020
" />
<path d="M129.8450 130.1020
L129.8450 130.5782
" />
<path d="M129.8450 130.5782
L129.7498 130.7687
" />
<path d="M129.7498 130.7687
L129.6545 130.8639
" />
<path d="M129.6545 130.8639
L129.4641 130.9592
" />
<path d="M129.4641 130.9592
L128.9879 130.9592
" />
<path d="M128.9879 130.9592
L128.7974 130.8639
" />
<path d="M128.7974 130.8639
L128.7021 130.7687
" />
<path d="M131.7498 130.9592
L130.6069 130.9592
" />
<path d="M131.1783 130.9592
L131.1783 128.9592
" />
<path d="M131.1783 128.9592
L130.9879 129.2449
" />
<path d="M130.9879 129.2449
L130.7974 129.4353
" />
<path d="M130.7974 129.4353
L130.6069 129.5306
" />
<path d="M132.5117 128.9592
L132.5117 129.3401
" />
<path d="M133.2736 128.9592
L133.2736 129.3401
" />
<path d="M136.2260 131.7211
L136.1307 131.6258
" />
<path d="M136.1307 131.6258
L135.9402 131.3401
" />
<path d="M135.9402 131.3401
L135.8450 131.1496
" />
<path d="M135.8450 131.1496
L135.7498 130.8639
" />
<path d="M135.7498 130.8639
L135.6545 130.3877
" />
<path d="M135.6545 130.3877
L135.6545 130.0068
" />
<path d="M135.6545 130.0068
L135.7498 129.5306
" />
<path d="M135.7498 129.5306
L135.8450 129.2449
" />
<path d="M135.8450 129.2449
L135.9402 129.0544
" />
<path d="M135.9402 129.0544
L136.1307 128.7687
" />
<path d="M136.1307 128.7687
L136.2260 128.6734
" />
<path d="M136.7974 128.9592
L138.1307 128.9592
" />
<path d="M138.1307 128.9592
L137.2736 130.9592
" />
<path d="M140.4164 130.9592
L140.4164 128.9592
" />
<path d="M141.2736 130.9592
L141.2736 129.9115
" />
<path d="M141.2736 129.9115
L141.1783 129.7211
" />
<path d="M141.1783 129.7211
L140.9879 129.6258
" />
<path d="M140.9879 129.6258
L140.7021 129.6258
" />
<path d="M140.7021 129.6258
L140.5117 129.7211
" />
<path d="M140.5117 129.7211
L140.4164 129.8163
" />
<path d="M142.5117 130.9592
L142.3212 130.8639
" />
<path d="M142.3212 130.8639
L142.2260 130.7687
" />
<path d="M142.2260 130.7687
L142.1307 130.5782
" />
<path d="M142.1307 130.5782
L142.1307 130.0068
" />
<path d="M142.1307 130.0068
L142.2260 129.8163
" />
<path d="M142.2260 129.8163
L142.3212 129.7211
" />
<path d="M142.3212 129.7211
L142.5117 129.6258
" />
<path d="M142.5117 129.6258
L142.7974 129.6258
" />
<path d="M142.7974 129.6258
L142.9879 129.7211
" />
<path d="M142.9879 129.7211
L143.0831 129.8163
" />
<path d="M143.0831 129.8163
L143.1783 130.0068
" />
<path d="M143.1783 130.0068
L143.1783 130.5782
" />
<path d="M143.1783 130.5782
L143.0831 130.7687
" />
<path d="M143.0831 130.7687
L142.9879 130.8639
" />
<path d="M142.9879 130.8639
L142.7974 130.9592
" />
<path d="M142.7974 130.9592
L142.5117 130.9592
" />
<path d="M144.3212 130.9592
L144.1307 130.8639
" />
<path d="M144.1307 130.8639
L144.0355 130.6734
" />
<path d="M144.0355 130.6734
L144.0355 128.9592
" />
<path d="M145.8450 130.8639
L145.6545 130.9592
" />
<path d="M145.6545 130.9592
L145.2736 130.9592
" />
<path d="M145.2736 130.9592
L145.0831 130.8639
" />
<path d="M145.0831 130.8639
L144.9879 130.6734
" />
<path d="M144.9879 130.6734
L144.9879 129.9115
" />
<path d="M144.9879 129.9115
L145.0831 129.7211
" />
<path d="M145.0831 129.7211
L145.2736 129.6258
" />
<path d="M145.2736 129.6258
L145.6545 129.6258
" />
<path d="M145.6545 129.6258
L145.8450 129.7211
" />
<path d="M145.8450 129.7211
L145.9402 129.9115
" />
<path d="M145.9402 129.9115
L145.9402 130.1020
" />
<path d="M145.9402 130.1020
L144.9879 130.2925
" />
<path d="M146.7021 130.8639
L146.8926 130.9592
" />
<path d="M146.8926 130.9592
L147.2736 130.9592
" />
<path d="M147.2736 130.9592
L147.4641 130.8639
" />
<path d="M147.4641 130.8639
L147.5593 130.6734
" />
<path d="M147.5593 130.6734
L147.5593 130.5782
" />
<path d="M147.5593 130.5782
L147.4641 130.3877
" />
<path d="M147.4641 130.3877
L147.2736 130.2925
" />
<path d="M147.2736 130.2925
L146.9879 130.2925
" />
<path d="M146.9879 130.2925
L146.7974 130.1973
" />
<path d="M146.7974 130.1973
L146.7021 130.0068
" />
<path d="M146.7021 130.0068
L146.7021 129.9115
" />
<path d="M146.7021 129.9115
L146.7974 129.7211
" />
<path d="M146.7974 129.7211
L146.9879 129.6258
" />
<path d="M146.9879 129.6258
L147.2736 129.6258
" />
<path d="M147.2736 129.6258
L147.4641 129.7211
" />
<path d="M148.2260 131.7211
L148.3212 131.6258
" />
<path d="M148.3212 131.6258
L148.5117 131.3401
" />
<path d="M148.5117 131.3401
L148.6069 131.1496
" />
<path d="M148.6069 131.1496
L148.7021 130.8639
" />
<path d="M148.7021 130.8639
L148.7974 130.3877
" />
<path d="M148.7974 130.3877
L148.7974 130.0068
" />
<path d="M148.7974 130.0068
L148.7021 129.5306
" />
<path d="M148.7021 129.5306
L148.6069 129.2449
" />
<path d="M148.6069 129.2449
L148.5117 129.0544
" />
<path d="M148.5117 129.0544
L148.3212 128.7687
" />
<path d="M148.3212 128.7687
L148.2260 128.6734
" />
</g></g> 
</svg>
