<?xml version="1.0" standalone="no"?>
 <!DOCTYPE svg PUBLIC "-//W3C//DTD SVG 1.1//EN" 
 "http://www.w3.org/Graphics/SVG/1.1/DTD/svg11.dtd"> 
<svg
  xmlns:svg="http://www.w3.org/2000/svg"
  xmlns="http://www.w3.org/2000/svg"
  xmlns:xlink="http://www.w3.org/1999/xlink"
  version="1.1"
  width="68.529200mm" height="84.505800mm" viewBox="0.000000 0.000000 68.529200 84.505800">
<title>SVG Image created as pomodoro_timer-B_Cu.svg date 2025/09/16 15:35:36 </title>
  <desc>Image generated by PCBNEW </desc>
<g style="fill:#000000; fill-opacity:1.000000;stroke:#000000; stroke-opacity:1.000000;
stroke-linecap:round; stroke-linejoin:round;"
 transform="translate(0 0) scale(1 1)">
</g>
<g style="fill:#000000; fill-opacity:1.000000; stroke:none;">
<circle cx="38.396000" cy="42.105750" r="1.050000" /> 
</g>
<g style="fill:#000000; fill-opacity:1.000000; stroke:none;">
<circle cx="35.856000" cy="42.105750" r="1.050000" /> 
</g>
<g style="fill:#000000; fill-opacity:1.000000; stroke:none;">
<circle cx="33.316000" cy="42.105750" r="1.050000" /> 
</g>
<g style="fill:#000000; fill-opacity:1.000000; stroke:none;">
<circle cx="30.776000" cy="42.105750" r="1.050000" /> 
</g>
<g style="fill:#000000; fill-opacity:1.000000; stroke:none;">
<circle cx="48.058000" cy="37.321750" r="1.050000" /> 
</g>
<g style="fill:#000000; fill-opacity:1.000000; stroke:none;">
<circle cx="48.058000" cy="39.861750" r="1.050000" /> 
</g>
<g style="fill:#000000; fill-opacity:1.000000; stroke:none;">
<circle cx="48.058000" cy="42.401750" r="1.050000" /> 
</g>
<g style="fill:#000000; fill-opacity:1.000000; stroke:none;">
<circle cx="39.130000" cy="8.548250" r="0.700000" /> 
</g>
<g style="fill:#000000; fill-opacity:1.000000; stroke:none;">
<circle cx="39.130000" cy="8.148250" r="0.700000" /> 
</g>
<g style="fill:#000000; fill-opacity:1.000000; stroke:none;">
<circle cx="39.130000" cy="4.748250" r="0.700000" /> 
</g>
<g style="fill:#000000; fill-opacity:1.000000; stroke:none;">
<circle cx="39.130000" cy="4.348250" r="0.700000" /> 
</g>
<g style="fill:#000000; fill-opacity:1.000000; stroke:none;">
<circle cx="30.490000" cy="8.548250" r="0.700000" /> 
</g>
<g style="fill:#000000; fill-opacity:1.000000; stroke:none;">
<circle cx="30.490000" cy="8.148250" r="0.700000" /> 
</g>
<g style="fill:#000000; fill-opacity:1.000000; stroke:none;">
<circle cx="30.490000" cy="4.748250" r="0.700000" /> 
</g>
<g style="fill:#000000; fill-opacity:1.000000; stroke:none;">
<circle cx="30.490000" cy="4.348250" r="0.700000" /> 
</g>
<g style="fill:none; 
stroke:#000000; stroke-width:0.050000; stroke-opacity:1; 
stroke-linecap:round; stroke-linejoin:round;">
<path d="M28.709962 83.734688 A0.500038 0.500038 0.0 0 0 29.210000 84.234688" />
<path d="M29.810000 3.135750
L29.210000 3.735750
" />
<path d="M40.310000 84.233742 A0.499092 0.499092 0.0 0 0 40.809092 83.734688" />
<path d="M1.815733 14.962458
L22.560000 2.985750
" />
<path d="M62.946540 22.138936 A4.620627 4.620627 0.0 0 0 66.803354 14.384580" />
<path d="M6.360088 22.485473 A33.228407 33.228407 0.0 0 0 28.710000 72.408744" />
<path d="M29.210000 6.085750
L28.010000 6.085750
" />
<path d="M39.810000 3.135750
L29.810000 3.135750
" />
<path d="M40.460000 3.785750
L39.810000 3.135750
" />
<path d="M40.809092 72.408911
L40.809092 83.734688
" />
<path d="M66.803353 14.384580
L47.060000 2.985750
" />
<path d="M40.460000 6.085750
L40.460000 3.785750
" />
<path d="M47.061579 2.977491 A4.629062 4.629062 0.0 0 0 41.788792 6.085750" />
<path d="M29.210000 84.234688
L40.310000 84.233780
" />
<path d="M40.809094 72.408910 A33.228406 33.228406 0.0 0 0 62.946504 22.138934" />
<path d="M29.210000 3.735750
L29.210000 6.085750
" />
<path d="M41.788792 6.085750
L40.460000 6.085750
" />
<path d="M28.010000 6.085750 A4.617172 4.617172 0.0 0 0 22.560784 2.989094" />
<path d="M1.815733 14.962459 A4.620627 4.620627 0.0 0 0 6.360067 22.485478" />
<path d="M28.710000 72.408742
L28.710000 83.734688
" />
</g>
<g style="fill:#FFFFFF; fill-opacity:1.000000; stroke:none;">
<circle cx="38.396000" cy="42.105750" r="0.700000" /> 
</g>
<g style="fill:#FFFFFF; fill-opacity:1.000000; stroke:none;">
<circle cx="35.856000" cy="42.105750" r="0.700000" /> 
</g>
<g style="fill:#FFFFFF; fill-opacity:1.000000; stroke:none;">
<circle cx="33.316000" cy="42.105750" r="0.700000" /> 
</g>
<g style="fill:#FFFFFF; fill-opacity:1.000000; stroke:none;">
<circle cx="30.776000" cy="42.105750" r="0.700000" /> 
</g>
<g style="fill:#FFFFFF; fill-opacity:1.000000; stroke:none;">
<circle cx="48.058000" cy="37.321750" r="0.700000" /> 
</g>
<g style="fill:#FFFFFF; fill-opacity:1.000000; stroke:none;">
<circle cx="48.058000" cy="39.861750" r="0.700000" /> 
</g>
<g style="fill:#FFFFFF; fill-opacity:1.000000; stroke:none;">
<circle cx="48.058000" cy="42.401750" r="0.700000" /> 
</g>
<g style="fill:#FFFFFF; fill-opacity:1.000000; stroke:none;">
<circle cx="39.130000" cy="8.548250" r="0.400000" /> 
</g>
<g style="fill:#FFFFFF; fill-opacity:1.000000; stroke:none;">
<circle cx="39.130000" cy="8.148250" r="0.400000" /> 
</g>
<g style="fill:#FFFFFF; fill-opacity:1.000000; stroke:none;">
<circle cx="39.130000" cy="4.748250" r="0.400000" /> 
</g>
<g style="fill:#FFFFFF; fill-opacity:1.000000; stroke:none;">
<circle cx="39.130000" cy="4.348250" r="0.400000" /> 
</g>
<g style="fill:#FFFFFF; fill-opacity:1.000000; stroke:none;">
<circle cx="30.490000" cy="8.548250" r="0.400000" /> 
</g>
<g style="fill:#FFFFFF; fill-opacity:1.000000; stroke:none;">
<circle cx="30.490000" cy="8.148250" r="0.400000" /> 
</g>
<g style="fill:#FFFFFF; fill-opacity:1.000000; stroke:none;">
<circle cx="30.490000" cy="4.748250" r="0.400000" /> 
</g>
<g style="fill:#FFFFFF; fill-opacity:1.000000; stroke:none;">
<circle cx="30.490000" cy="4.348250" r="0.400000" /> 
</g> 
</svg>
